<?xml version="1.0" encoding="utf-8" standalone="no"?>
<!DOCTYPE svg PUBLIC "-//W3C//DTD SVG 1.1//EN"
  "http://www.w3.org/Graphics/SVG/1.1/DTD/svg11.dtd">
<!-- Created with matplotlib (http://matplotlib.org/) -->
<svg height="342.72pt" version="1.1" viewBox="0 0 460.8 342.72" width="460.8pt" xmlns="http://www.w3.org/2000/svg" xmlns:xlink="http://www.w3.org/1999/xlink">
 <defs>
  <style type="text/css">
*{stroke-linecap:butt;stroke-linejoin:round;}
  </style>
 </defs>
 <g id="figure_1">
  <g id="patch_1">
   <path d="M 0 342.72 
L 460.8 342.72 
L 460.8 0 
L 0 0 
z
" style="fill:#ffffff;"/>
  </g>
  <g id="axes_1">
   <g id="patch_2">
    <path d="M 57.6 305.0208 
L 414.72 305.0208 
L 414.72 41.1264 
L 57.6 41.1264 
z
" style="fill:#ffffff;"/>
   </g>
   <g id="matplotlib.axis_1">
    <g id="xtick_1">
     <g id="line2d_1">
      <defs>
       <path d="M 0 0 
L 0 3.5 
" id="m9bf544bb1a" style="stroke:#000000;stroke-width:0.8;"/>
      </defs>
      <g>
       <use style="stroke:#000000;stroke-width:0.8;" x="92.861984" xlink:href="#m9bf544bb1a" y="305.0208"/>
      </g>
     </g>
     <g id="text_1">
      <!-- 0 -->
      <defs>
       <path d="M 31.78125 66.40625 
Q 24.171875 66.40625 20.328125 58.90625 
Q 16.5 51.421875 16.5 36.375 
Q 16.5 21.390625 20.328125 13.890625 
Q 24.171875 6.390625 31.78125 6.390625 
Q 39.453125 6.390625 43.28125 13.890625 
Q 47.125 21.390625 47.125 36.375 
Q 47.125 51.421875 43.28125 58.90625 
Q 39.453125 66.40625 31.78125 66.40625 
z
M 31.78125 74.21875 
Q 44.046875 74.21875 50.515625 64.515625 
Q 56.984375 54.828125 56.984375 36.375 
Q 56.984375 17.96875 50.515625 8.265625 
Q 44.046875 -1.421875 31.78125 -1.421875 
Q 19.53125 -1.421875 13.0625 8.265625 
Q 6.59375 17.96875 6.59375 36.375 
Q 6.59375 54.828125 13.0625 64.515625 
Q 19.53125 74.21875 31.78125 74.21875 
z
" id="DejaVuSans-30"/>
      </defs>
      <g transform="translate(89.680734 319.619237)scale(0.1 -0.1)">
       <use xlink:href="#DejaVuSans-30"/>
      </g>
     </g>
    </g>
    <g id="xtick_2">
     <g id="line2d_2">
      <g>
       <use style="stroke:#000000;stroke-width:0.8;" x="132.982786" xlink:href="#m9bf544bb1a" y="305.0208"/>
      </g>
     </g>
     <g id="text_2">
      <!-- 5 -->
      <defs>
       <path d="M 10.796875 72.90625 
L 49.515625 72.90625 
L 49.515625 64.59375 
L 19.828125 64.59375 
L 19.828125 46.734375 
Q 21.96875 47.46875 24.109375 47.828125 
Q 26.265625 48.1875 28.421875 48.1875 
Q 40.625 48.1875 47.75 41.5 
Q 54.890625 34.8125 54.890625 23.390625 
Q 54.890625 11.625 47.5625 5.09375 
Q 40.234375 -1.421875 26.90625 -1.421875 
Q 22.3125 -1.421875 17.546875 -0.640625 
Q 12.796875 0.140625 7.71875 1.703125 
L 7.71875 11.625 
Q 12.109375 9.234375 16.796875 8.0625 
Q 21.484375 6.890625 26.703125 6.890625 
Q 35.15625 6.890625 40.078125 11.328125 
Q 45.015625 15.765625 45.015625 23.390625 
Q 45.015625 31 40.078125 35.4375 
Q 35.15625 39.890625 26.703125 39.890625 
Q 22.75 39.890625 18.8125 39.015625 
Q 14.890625 38.140625 10.796875 36.28125 
z
" id="DejaVuSans-35"/>
      </defs>
      <g transform="translate(129.801536 319.619237)scale(0.1 -0.1)">
       <use xlink:href="#DejaVuSans-35"/>
      </g>
     </g>
    </g>
    <g id="xtick_3">
     <g id="line2d_3">
      <g>
       <use style="stroke:#000000;stroke-width:0.8;" x="173.103588" xlink:href="#m9bf544bb1a" y="305.0208"/>
      </g>
     </g>
     <g id="text_3">
      <!-- 10 -->
      <defs>
       <path d="M 12.40625 8.296875 
L 28.515625 8.296875 
L 28.515625 63.921875 
L 10.984375 60.40625 
L 10.984375 69.390625 
L 28.421875 72.90625 
L 38.28125 72.90625 
L 38.28125 8.296875 
L 54.390625 8.296875 
L 54.390625 0 
L 12.40625 0 
z
" id="DejaVuSans-31"/>
      </defs>
      <g transform="translate(166.741088 319.619237)scale(0.1 -0.1)">
       <use xlink:href="#DejaVuSans-31"/>
       <use x="63.623047" xlink:href="#DejaVuSans-30"/>
      </g>
     </g>
    </g>
    <g id="xtick_4">
     <g id="line2d_4">
      <g>
       <use style="stroke:#000000;stroke-width:0.8;" x="213.22439" xlink:href="#m9bf544bb1a" y="305.0208"/>
      </g>
     </g>
     <g id="text_4">
      <!-- 15 -->
      <g transform="translate(206.86189 319.619237)scale(0.1 -0.1)">
       <use xlink:href="#DejaVuSans-31"/>
       <use x="63.623047" xlink:href="#DejaVuSans-35"/>
      </g>
     </g>
    </g>
    <g id="xtick_5">
     <g id="line2d_5">
      <g>
       <use style="stroke:#000000;stroke-width:0.8;" x="253.345192" xlink:href="#m9bf544bb1a" y="305.0208"/>
      </g>
     </g>
     <g id="text_5">
      <!-- 20 -->
      <defs>
       <path d="M 19.1875 8.296875 
L 53.609375 8.296875 
L 53.609375 0 
L 7.328125 0 
L 7.328125 8.296875 
Q 12.9375 14.109375 22.625 23.890625 
Q 32.328125 33.6875 34.8125 36.53125 
Q 39.546875 41.84375 41.421875 45.53125 
Q 43.3125 49.21875 43.3125 52.78125 
Q 43.3125 58.59375 39.234375 62.25 
Q 35.15625 65.921875 28.609375 65.921875 
Q 23.96875 65.921875 18.8125 64.3125 
Q 13.671875 62.703125 7.8125 59.421875 
L 7.8125 69.390625 
Q 13.765625 71.78125 18.9375 73 
Q 24.125 74.21875 28.421875 74.21875 
Q 39.75 74.21875 46.484375 68.546875 
Q 53.21875 62.890625 53.21875 53.421875 
Q 53.21875 48.921875 51.53125 44.890625 
Q 49.859375 40.875 45.40625 35.40625 
Q 44.1875 33.984375 37.640625 27.21875 
Q 31.109375 20.453125 19.1875 8.296875 
z
" id="DejaVuSans-32"/>
      </defs>
      <g transform="translate(246.982692 319.619237)scale(0.1 -0.1)">
       <use xlink:href="#DejaVuSans-32"/>
       <use x="63.623047" xlink:href="#DejaVuSans-30"/>
      </g>
     </g>
    </g>
    <g id="xtick_6">
     <g id="line2d_6">
      <g>
       <use style="stroke:#000000;stroke-width:0.8;" x="293.465994" xlink:href="#m9bf544bb1a" y="305.0208"/>
      </g>
     </g>
     <g id="text_6">
      <!-- 25 -->
      <g transform="translate(287.103494 319.619237)scale(0.1 -0.1)">
       <use xlink:href="#DejaVuSans-32"/>
       <use x="63.623047" xlink:href="#DejaVuSans-35"/>
      </g>
     </g>
    </g>
    <g id="xtick_7">
     <g id="line2d_7">
      <g>
       <use style="stroke:#000000;stroke-width:0.8;" x="333.586798" xlink:href="#m9bf544bb1a" y="305.0208"/>
      </g>
     </g>
     <g id="text_7">
      <!-- 30 -->
      <defs>
       <path d="M 40.578125 39.3125 
Q 47.65625 37.796875 51.625 33 
Q 55.609375 28.21875 55.609375 21.1875 
Q 55.609375 10.40625 48.1875 4.484375 
Q 40.765625 -1.421875 27.09375 -1.421875 
Q 22.515625 -1.421875 17.65625 -0.515625 
Q 12.796875 0.390625 7.625 2.203125 
L 7.625 11.71875 
Q 11.71875 9.328125 16.59375 8.109375 
Q 21.484375 6.890625 26.8125 6.890625 
Q 36.078125 6.890625 40.9375 10.546875 
Q 45.796875 14.203125 45.796875 21.1875 
Q 45.796875 27.640625 41.28125 31.265625 
Q 36.765625 34.90625 28.71875 34.90625 
L 20.21875 34.90625 
L 20.21875 43.015625 
L 29.109375 43.015625 
Q 36.375 43.015625 40.234375 45.921875 
Q 44.09375 48.828125 44.09375 54.296875 
Q 44.09375 59.90625 40.109375 62.90625 
Q 36.140625 65.921875 28.71875 65.921875 
Q 24.65625 65.921875 20.015625 65.03125 
Q 15.375 64.15625 9.8125 62.3125 
L 9.8125 71.09375 
Q 15.4375 72.65625 20.34375 73.4375 
Q 25.25 74.21875 29.59375 74.21875 
Q 40.828125 74.21875 47.359375 69.109375 
Q 53.90625 64.015625 53.90625 55.328125 
Q 53.90625 49.265625 50.4375 45.09375 
Q 46.96875 40.921875 40.578125 39.3125 
z
" id="DejaVuSans-33"/>
      </defs>
      <g transform="translate(327.224298 319.619237)scale(0.1 -0.1)">
       <use xlink:href="#DejaVuSans-33"/>
       <use x="63.623047" xlink:href="#DejaVuSans-30"/>
      </g>
     </g>
    </g>
    <g id="xtick_8">
     <g id="line2d_8">
      <g>
       <use style="stroke:#000000;stroke-width:0.8;" x="373.7076" xlink:href="#m9bf544bb1a" y="305.0208"/>
      </g>
     </g>
     <g id="text_8">
      <!-- 35 -->
      <g transform="translate(367.3451 319.619237)scale(0.1 -0.1)">
       <use xlink:href="#DejaVuSans-33"/>
       <use x="63.623047" xlink:href="#DejaVuSans-35"/>
      </g>
     </g>
    </g>
    <g id="xtick_9">
     <g id="line2d_9">
      <g>
       <use style="stroke:#000000;stroke-width:0.8;" x="413.828402" xlink:href="#m9bf544bb1a" y="305.0208"/>
      </g>
     </g>
     <g id="text_9">
      <!-- 40 -->
      <defs>
       <path d="M 37.796875 64.3125 
L 12.890625 25.390625 
L 37.796875 25.390625 
z
M 35.203125 72.90625 
L 47.609375 72.90625 
L 47.609375 25.390625 
L 58.015625 25.390625 
L 58.015625 17.1875 
L 47.609375 17.1875 
L 47.609375 0 
L 37.796875 0 
L 37.796875 17.1875 
L 4.890625 17.1875 
L 4.890625 26.703125 
z
" id="DejaVuSans-34"/>
      </defs>
      <g transform="translate(407.465902 319.619237)scale(0.1 -0.1)">
       <use xlink:href="#DejaVuSans-34"/>
       <use x="63.623047" xlink:href="#DejaVuSans-30"/>
      </g>
     </g>
    </g>
    <g id="text_10">
     <!-- Time(s) -->
     <defs>
      <path d="M -0.296875 72.90625 
L 61.375 72.90625 
L 61.375 64.59375 
L 35.5 64.59375 
L 35.5 0 
L 25.59375 0 
L 25.59375 64.59375 
L -0.296875 64.59375 
z
" id="DejaVuSans-54"/>
      <path d="M 9.421875 54.6875 
L 18.40625 54.6875 
L 18.40625 0 
L 9.421875 0 
z
M 9.421875 75.984375 
L 18.40625 75.984375 
L 18.40625 64.59375 
L 9.421875 64.59375 
z
" id="DejaVuSans-69"/>
      <path d="M 52 44.1875 
Q 55.375 50.25 60.0625 53.125 
Q 64.75 56 71.09375 56 
Q 79.640625 56 84.28125 50.015625 
Q 88.921875 44.046875 88.921875 33.015625 
L 88.921875 0 
L 79.890625 0 
L 79.890625 32.71875 
Q 79.890625 40.578125 77.09375 44.375 
Q 74.3125 48.1875 68.609375 48.1875 
Q 61.625 48.1875 57.5625 43.546875 
Q 53.515625 38.921875 53.515625 30.90625 
L 53.515625 0 
L 44.484375 0 
L 44.484375 32.71875 
Q 44.484375 40.625 41.703125 44.40625 
Q 38.921875 48.1875 33.109375 48.1875 
Q 26.21875 48.1875 22.15625 43.53125 
Q 18.109375 38.875 18.109375 30.90625 
L 18.109375 0 
L 9.078125 0 
L 9.078125 54.6875 
L 18.109375 54.6875 
L 18.109375 46.1875 
Q 21.1875 51.21875 25.484375 53.609375 
Q 29.78125 56 35.6875 56 
Q 41.65625 56 45.828125 52.96875 
Q 50 49.953125 52 44.1875 
z
" id="DejaVuSans-6d"/>
      <path d="M 56.203125 29.59375 
L 56.203125 25.203125 
L 14.890625 25.203125 
Q 15.484375 15.921875 20.484375 11.0625 
Q 25.484375 6.203125 34.421875 6.203125 
Q 39.59375 6.203125 44.453125 7.46875 
Q 49.3125 8.734375 54.109375 11.28125 
L 54.109375 2.78125 
Q 49.265625 0.734375 44.1875 -0.34375 
Q 39.109375 -1.421875 33.890625 -1.421875 
Q 20.796875 -1.421875 13.15625 6.1875 
Q 5.515625 13.8125 5.515625 26.8125 
Q 5.515625 40.234375 12.765625 48.109375 
Q 20.015625 56 32.328125 56 
Q 43.359375 56 49.78125 48.890625 
Q 56.203125 41.796875 56.203125 29.59375 
z
M 47.21875 32.234375 
Q 47.125 39.59375 43.09375 43.984375 
Q 39.0625 48.390625 32.421875 48.390625 
Q 24.90625 48.390625 20.390625 44.140625 
Q 15.875 39.890625 15.1875 32.171875 
z
" id="DejaVuSans-65"/>
      <path d="M 31 75.875 
Q 24.46875 64.65625 21.28125 53.65625 
Q 18.109375 42.671875 18.109375 31.390625 
Q 18.109375 20.125 21.3125 9.0625 
Q 24.515625 -2 31 -13.1875 
L 23.1875 -13.1875 
Q 15.875 -1.703125 12.234375 9.375 
Q 8.59375 20.453125 8.59375 31.390625 
Q 8.59375 42.28125 12.203125 53.3125 
Q 15.828125 64.359375 23.1875 75.875 
z
" id="DejaVuSans-28"/>
      <path d="M 44.28125 53.078125 
L 44.28125 44.578125 
Q 40.484375 46.53125 36.375 47.5 
Q 32.28125 48.484375 27.875 48.484375 
Q 21.1875 48.484375 17.84375 46.4375 
Q 14.5 44.390625 14.5 40.28125 
Q 14.5 37.15625 16.890625 35.375 
Q 19.28125 33.59375 26.515625 31.984375 
L 29.59375 31.296875 
Q 39.15625 29.25 43.1875 25.515625 
Q 47.21875 21.78125 47.21875 15.09375 
Q 47.21875 7.46875 41.1875 3.015625 
Q 35.15625 -1.421875 24.609375 -1.421875 
Q 20.21875 -1.421875 15.453125 -0.5625 
Q 10.6875 0.296875 5.421875 2 
L 5.421875 11.28125 
Q 10.40625 8.6875 15.234375 7.390625 
Q 20.0625 6.109375 24.8125 6.109375 
Q 31.15625 6.109375 34.5625 8.28125 
Q 37.984375 10.453125 37.984375 14.40625 
Q 37.984375 18.0625 35.515625 20.015625 
Q 33.0625 21.96875 24.703125 23.78125 
L 21.578125 24.515625 
Q 13.234375 26.265625 9.515625 29.90625 
Q 5.8125 33.546875 5.8125 39.890625 
Q 5.8125 47.609375 11.28125 51.796875 
Q 16.75 56 26.8125 56 
Q 31.78125 56 36.171875 55.265625 
Q 40.578125 54.546875 44.28125 53.078125 
z
" id="DejaVuSans-73"/>
      <path d="M 8.015625 75.875 
L 15.828125 75.875 
Q 23.140625 64.359375 26.78125 53.3125 
Q 30.421875 42.28125 30.421875 31.390625 
Q 30.421875 20.453125 26.78125 9.375 
Q 23.140625 -1.703125 15.828125 -13.1875 
L 8.015625 -13.1875 
Q 14.5 -2 17.703125 9.0625 
Q 20.90625 20.125 20.90625 31.390625 
Q 20.90625 42.671875 17.703125 53.65625 
Q 14.5 64.65625 8.015625 75.875 
z
" id="DejaVuSans-29"/>
     </defs>
     <g transform="translate(217.26625 333.297362)scale(0.1 -0.1)">
      <use xlink:href="#DejaVuSans-54"/>
      <use x="61.037109" xlink:href="#DejaVuSans-69"/>
      <use x="88.820312" xlink:href="#DejaVuSans-6d"/>
      <use x="186.232422" xlink:href="#DejaVuSans-65"/>
      <use x="247.755859" xlink:href="#DejaVuSans-28"/>
      <use x="286.769531" xlink:href="#DejaVuSans-73"/>
      <use x="338.869141" xlink:href="#DejaVuSans-29"/>
     </g>
    </g>
    <g id="text_11">
     <!-- +1.558952e9 -->
     <defs>
      <path d="M 46 62.703125 
L 46 35.5 
L 73.1875 35.5 
L 73.1875 27.203125 
L 46 27.203125 
L 46 0 
L 37.796875 0 
L 37.796875 27.203125 
L 10.59375 27.203125 
L 10.59375 35.5 
L 37.796875 35.5 
L 37.796875 62.703125 
z
" id="DejaVuSans-2b"/>
      <path d="M 10.6875 12.40625 
L 21 12.40625 
L 21 0 
L 10.6875 0 
z
" id="DejaVuSans-2e"/>
      <path d="M 31.78125 34.625 
Q 24.75 34.625 20.71875 30.859375 
Q 16.703125 27.09375 16.703125 20.515625 
Q 16.703125 13.921875 20.71875 10.15625 
Q 24.75 6.390625 31.78125 6.390625 
Q 38.8125 6.390625 42.859375 10.171875 
Q 46.921875 13.96875 46.921875 20.515625 
Q 46.921875 27.09375 42.890625 30.859375 
Q 38.875 34.625 31.78125 34.625 
z
M 21.921875 38.8125 
Q 15.578125 40.375 12.03125 44.71875 
Q 8.5 49.078125 8.5 55.328125 
Q 8.5 64.0625 14.71875 69.140625 
Q 20.953125 74.21875 31.78125 74.21875 
Q 42.671875 74.21875 48.875 69.140625 
Q 55.078125 64.0625 55.078125 55.328125 
Q 55.078125 49.078125 51.53125 44.71875 
Q 48 40.375 41.703125 38.8125 
Q 48.828125 37.15625 52.796875 32.3125 
Q 56.78125 27.484375 56.78125 20.515625 
Q 56.78125 9.90625 50.3125 4.234375 
Q 43.84375 -1.421875 31.78125 -1.421875 
Q 19.734375 -1.421875 13.25 4.234375 
Q 6.78125 9.90625 6.78125 20.515625 
Q 6.78125 27.484375 10.78125 32.3125 
Q 14.796875 37.15625 21.921875 38.8125 
z
M 18.3125 54.390625 
Q 18.3125 48.734375 21.84375 45.5625 
Q 25.390625 42.390625 31.78125 42.390625 
Q 38.140625 42.390625 41.71875 45.5625 
Q 45.3125 48.734375 45.3125 54.390625 
Q 45.3125 60.0625 41.71875 63.234375 
Q 38.140625 66.40625 31.78125 66.40625 
Q 25.390625 66.40625 21.84375 63.234375 
Q 18.3125 60.0625 18.3125 54.390625 
z
" id="DejaVuSans-38"/>
      <path d="M 10.984375 1.515625 
L 10.984375 10.5 
Q 14.703125 8.734375 18.5 7.8125 
Q 22.3125 6.890625 25.984375 6.890625 
Q 35.75 6.890625 40.890625 13.453125 
Q 46.046875 20.015625 46.78125 33.40625 
Q 43.953125 29.203125 39.59375 26.953125 
Q 35.25 24.703125 29.984375 24.703125 
Q 19.046875 24.703125 12.671875 31.3125 
Q 6.296875 37.9375 6.296875 49.421875 
Q 6.296875 60.640625 12.9375 67.421875 
Q 19.578125 74.21875 30.609375 74.21875 
Q 43.265625 74.21875 49.921875 64.515625 
Q 56.59375 54.828125 56.59375 36.375 
Q 56.59375 19.140625 48.40625 8.859375 
Q 40.234375 -1.421875 26.421875 -1.421875 
Q 22.703125 -1.421875 18.890625 -0.6875 
Q 15.09375 0.046875 10.984375 1.515625 
z
M 30.609375 32.421875 
Q 37.25 32.421875 41.125 36.953125 
Q 45.015625 41.5 45.015625 49.421875 
Q 45.015625 57.28125 41.125 61.84375 
Q 37.25 66.40625 30.609375 66.40625 
Q 23.96875 66.40625 20.09375 61.84375 
Q 16.21875 57.28125 16.21875 49.421875 
Q 16.21875 41.5 20.09375 36.953125 
Q 23.96875 32.421875 30.609375 32.421875 
z
" id="DejaVuSans-39"/>
     </defs>
     <g transform="translate(346.109063 332.297362)scale(0.1 -0.1)">
      <use xlink:href="#DejaVuSans-2b"/>
      <use x="83.789062" xlink:href="#DejaVuSans-31"/>
      <use x="147.412109" xlink:href="#DejaVuSans-2e"/>
      <use x="179.199219" xlink:href="#DejaVuSans-35"/>
      <use x="242.822266" xlink:href="#DejaVuSans-35"/>
      <use x="306.445312" xlink:href="#DejaVuSans-38"/>
      <use x="370.068359" xlink:href="#DejaVuSans-39"/>
      <use x="433.691406" xlink:href="#DejaVuSans-35"/>
      <use x="497.314453" xlink:href="#DejaVuSans-32"/>
      <use x="560.9375" xlink:href="#DejaVuSans-65"/>
      <use x="622.460938" xlink:href="#DejaVuSans-39"/>
     </g>
    </g>
   </g>
   <g id="matplotlib.axis_2">
    <g id="ytick_1">
     <g id="line2d_10">
      <defs>
       <path d="M 0 0 
L -3.5 0 
" id="mff9586ced3" style="stroke:#000000;stroke-width:0.8;"/>
      </defs>
      <g>
       <use style="stroke:#000000;stroke-width:0.8;" x="57.6" xlink:href="#mff9586ced3" y="275.40606"/>
      </g>
     </g>
     <g id="text_12">
      <!-- 24.8 -->
      <g transform="translate(28.334375 279.205279)scale(0.1 -0.1)">
       <use xlink:href="#DejaVuSans-32"/>
       <use x="63.623047" xlink:href="#DejaVuSans-34"/>
       <use x="127.246094" xlink:href="#DejaVuSans-2e"/>
       <use x="159.033203" xlink:href="#DejaVuSans-38"/>
      </g>
     </g>
    </g>
    <g id="ytick_2">
     <g id="line2d_11">
      <g>
       <use style="stroke:#000000;stroke-width:0.8;" x="57.6" xlink:href="#mff9586ced3" y="230.250803"/>
      </g>
     </g>
     <g id="text_13">
      <!-- 25.0 -->
      <g transform="translate(28.334375 234.050021)scale(0.1 -0.1)">
       <use xlink:href="#DejaVuSans-32"/>
       <use x="63.623047" xlink:href="#DejaVuSans-35"/>
       <use x="127.246094" xlink:href="#DejaVuSans-2e"/>
       <use x="159.033203" xlink:href="#DejaVuSans-30"/>
      </g>
     </g>
    </g>
    <g id="ytick_3">
     <g id="line2d_12">
      <g>
       <use style="stroke:#000000;stroke-width:0.8;" x="57.6" xlink:href="#mff9586ced3" y="185.095545"/>
      </g>
     </g>
     <g id="text_14">
      <!-- 25.2 -->
      <g transform="translate(28.334375 188.894764)scale(0.1 -0.1)">
       <use xlink:href="#DejaVuSans-32"/>
       <use x="63.623047" xlink:href="#DejaVuSans-35"/>
       <use x="127.246094" xlink:href="#DejaVuSans-2e"/>
       <use x="159.033203" xlink:href="#DejaVuSans-32"/>
      </g>
     </g>
    </g>
    <g id="ytick_4">
     <g id="line2d_13">
      <g>
       <use style="stroke:#000000;stroke-width:0.8;" x="57.6" xlink:href="#mff9586ced3" y="139.940287"/>
      </g>
     </g>
     <g id="text_15">
      <!-- 25.4 -->
      <g transform="translate(28.334375 143.739506)scale(0.1 -0.1)">
       <use xlink:href="#DejaVuSans-32"/>
       <use x="63.623047" xlink:href="#DejaVuSans-35"/>
       <use x="127.246094" xlink:href="#DejaVuSans-2e"/>
       <use x="159.033203" xlink:href="#DejaVuSans-34"/>
      </g>
     </g>
    </g>
    <g id="ytick_5">
     <g id="line2d_14">
      <g>
       <use style="stroke:#000000;stroke-width:0.8;" x="57.6" xlink:href="#mff9586ced3" y="94.78503"/>
      </g>
     </g>
     <g id="text_16">
      <!-- 25.6 -->
      <defs>
       <path d="M 33.015625 40.375 
Q 26.375 40.375 22.484375 35.828125 
Q 18.609375 31.296875 18.609375 23.390625 
Q 18.609375 15.53125 22.484375 10.953125 
Q 26.375 6.390625 33.015625 6.390625 
Q 39.65625 6.390625 43.53125 10.953125 
Q 47.40625 15.53125 47.40625 23.390625 
Q 47.40625 31.296875 43.53125 35.828125 
Q 39.65625 40.375 33.015625 40.375 
z
M 52.59375 71.296875 
L 52.59375 62.3125 
Q 48.875 64.0625 45.09375 64.984375 
Q 41.3125 65.921875 37.59375 65.921875 
Q 27.828125 65.921875 22.671875 59.328125 
Q 17.53125 52.734375 16.796875 39.40625 
Q 19.671875 43.65625 24.015625 45.921875 
Q 28.375 48.1875 33.59375 48.1875 
Q 44.578125 48.1875 50.953125 41.515625 
Q 57.328125 34.859375 57.328125 23.390625 
Q 57.328125 12.15625 50.6875 5.359375 
Q 44.046875 -1.421875 33.015625 -1.421875 
Q 20.359375 -1.421875 13.671875 8.265625 
Q 6.984375 17.96875 6.984375 36.375 
Q 6.984375 53.65625 15.1875 63.9375 
Q 23.390625 74.21875 37.203125 74.21875 
Q 40.921875 74.21875 44.703125 73.484375 
Q 48.484375 72.75 52.59375 71.296875 
z
" id="DejaVuSans-36"/>
      </defs>
      <g transform="translate(28.334375 98.584248)scale(0.1 -0.1)">
       <use xlink:href="#DejaVuSans-32"/>
       <use x="63.623047" xlink:href="#DejaVuSans-35"/>
       <use x="127.246094" xlink:href="#DejaVuSans-2e"/>
       <use x="159.033203" xlink:href="#DejaVuSans-36"/>
      </g>
     </g>
    </g>
    <g id="ytick_6">
     <g id="line2d_15">
      <g>
       <use style="stroke:#000000;stroke-width:0.8;" x="57.6" xlink:href="#mff9586ced3" y="49.629772"/>
      </g>
     </g>
     <g id="text_17">
      <!-- 25.8 -->
      <g transform="translate(28.334375 53.428991)scale(0.1 -0.1)">
       <use xlink:href="#DejaVuSans-32"/>
       <use x="63.623047" xlink:href="#DejaVuSans-35"/>
       <use x="127.246094" xlink:href="#DejaVuSans-2e"/>
       <use x="159.033203" xlink:href="#DejaVuSans-38"/>
      </g>
     </g>
    </g>
    <g id="text_18">
     <!-- SQUID Voltage(uV) -->
     <defs>
      <path d="M 53.515625 70.515625 
L 53.515625 60.890625 
Q 47.90625 63.578125 42.921875 64.890625 
Q 37.9375 66.21875 33.296875 66.21875 
Q 25.25 66.21875 20.875 63.09375 
Q 16.5 59.96875 16.5 54.203125 
Q 16.5 49.359375 19.40625 46.890625 
Q 22.3125 44.4375 30.421875 42.921875 
L 36.375 41.703125 
Q 47.40625 39.59375 52.65625 34.296875 
Q 57.90625 29 57.90625 20.125 
Q 57.90625 9.515625 50.796875 4.046875 
Q 43.703125 -1.421875 29.984375 -1.421875 
Q 24.8125 -1.421875 18.96875 -0.25 
Q 13.140625 0.921875 6.890625 3.21875 
L 6.890625 13.375 
Q 12.890625 10.015625 18.65625 8.296875 
Q 24.421875 6.59375 29.984375 6.59375 
Q 38.421875 6.59375 43.015625 9.90625 
Q 47.609375 13.234375 47.609375 19.390625 
Q 47.609375 24.75 44.3125 27.78125 
Q 41.015625 30.8125 33.5 32.328125 
L 27.484375 33.5 
Q 16.453125 35.6875 11.515625 40.375 
Q 6.59375 45.0625 6.59375 53.421875 
Q 6.59375 63.09375 13.40625 68.65625 
Q 20.21875 74.21875 32.171875 74.21875 
Q 37.3125 74.21875 42.625 73.28125 
Q 47.953125 72.359375 53.515625 70.515625 
z
" id="DejaVuSans-53"/>
      <path d="M 39.40625 66.21875 
Q 28.65625 66.21875 22.328125 58.203125 
Q 16.015625 50.203125 16.015625 36.375 
Q 16.015625 22.609375 22.328125 14.59375 
Q 28.65625 6.59375 39.40625 6.59375 
Q 50.140625 6.59375 56.421875 14.59375 
Q 62.703125 22.609375 62.703125 36.375 
Q 62.703125 50.203125 56.421875 58.203125 
Q 50.140625 66.21875 39.40625 66.21875 
z
M 53.21875 1.3125 
L 66.21875 -12.890625 
L 54.296875 -12.890625 
L 43.5 -1.21875 
Q 41.890625 -1.3125 41.03125 -1.359375 
Q 40.1875 -1.421875 39.40625 -1.421875 
Q 24.03125 -1.421875 14.8125 8.859375 
Q 5.609375 19.140625 5.609375 36.375 
Q 5.609375 53.65625 14.8125 63.9375 
Q 24.03125 74.21875 39.40625 74.21875 
Q 54.734375 74.21875 63.90625 63.9375 
Q 73.09375 53.65625 73.09375 36.375 
Q 73.09375 23.6875 67.984375 14.640625 
Q 62.890625 5.609375 53.21875 1.3125 
z
" id="DejaVuSans-51"/>
      <path d="M 8.6875 72.90625 
L 18.609375 72.90625 
L 18.609375 28.609375 
Q 18.609375 16.890625 22.84375 11.734375 
Q 27.09375 6.59375 36.625 6.59375 
Q 46.09375 6.59375 50.34375 11.734375 
Q 54.59375 16.890625 54.59375 28.609375 
L 54.59375 72.90625 
L 64.5 72.90625 
L 64.5 27.390625 
Q 64.5 13.140625 57.4375 5.859375 
Q 50.390625 -1.421875 36.625 -1.421875 
Q 22.796875 -1.421875 15.734375 5.859375 
Q 8.6875 13.140625 8.6875 27.390625 
z
" id="DejaVuSans-55"/>
      <path d="M 9.8125 72.90625 
L 19.671875 72.90625 
L 19.671875 0 
L 9.8125 0 
z
" id="DejaVuSans-49"/>
      <path d="M 19.671875 64.796875 
L 19.671875 8.109375 
L 31.59375 8.109375 
Q 46.6875 8.109375 53.6875 14.9375 
Q 60.6875 21.78125 60.6875 36.53125 
Q 60.6875 51.171875 53.6875 57.984375 
Q 46.6875 64.796875 31.59375 64.796875 
z
M 9.8125 72.90625 
L 30.078125 72.90625 
Q 51.265625 72.90625 61.171875 64.09375 
Q 71.09375 55.28125 71.09375 36.53125 
Q 71.09375 17.671875 61.125 8.828125 
Q 51.171875 0 30.078125 0 
L 9.8125 0 
z
" id="DejaVuSans-44"/>
      <path id="DejaVuSans-20"/>
      <path d="M 28.609375 0 
L 0.78125 72.90625 
L 11.078125 72.90625 
L 34.1875 11.53125 
L 57.328125 72.90625 
L 67.578125 72.90625 
L 39.796875 0 
z
" id="DejaVuSans-56"/>
      <path d="M 30.609375 48.390625 
Q 23.390625 48.390625 19.1875 42.75 
Q 14.984375 37.109375 14.984375 27.296875 
Q 14.984375 17.484375 19.15625 11.84375 
Q 23.34375 6.203125 30.609375 6.203125 
Q 37.796875 6.203125 41.984375 11.859375 
Q 46.1875 17.53125 46.1875 27.296875 
Q 46.1875 37.015625 41.984375 42.703125 
Q 37.796875 48.390625 30.609375 48.390625 
z
M 30.609375 56 
Q 42.328125 56 49.015625 48.375 
Q 55.71875 40.765625 55.71875 27.296875 
Q 55.71875 13.875 49.015625 6.21875 
Q 42.328125 -1.421875 30.609375 -1.421875 
Q 18.84375 -1.421875 12.171875 6.21875 
Q 5.515625 13.875 5.515625 27.296875 
Q 5.515625 40.765625 12.171875 48.375 
Q 18.84375 56 30.609375 56 
z
" id="DejaVuSans-6f"/>
      <path d="M 9.421875 75.984375 
L 18.40625 75.984375 
L 18.40625 0 
L 9.421875 0 
z
" id="DejaVuSans-6c"/>
      <path d="M 18.3125 70.21875 
L 18.3125 54.6875 
L 36.8125 54.6875 
L 36.8125 47.703125 
L 18.3125 47.703125 
L 18.3125 18.015625 
Q 18.3125 11.328125 20.140625 9.421875 
Q 21.96875 7.515625 27.59375 7.515625 
L 36.8125 7.515625 
L 36.8125 0 
L 27.59375 0 
Q 17.1875 0 13.234375 3.875 
Q 9.28125 7.765625 9.28125 18.015625 
L 9.28125 47.703125 
L 2.6875 47.703125 
L 2.6875 54.6875 
L 9.28125 54.6875 
L 9.28125 70.21875 
z
" id="DejaVuSans-74"/>
      <path d="M 34.28125 27.484375 
Q 23.390625 27.484375 19.1875 25 
Q 14.984375 22.515625 14.984375 16.5 
Q 14.984375 11.71875 18.140625 8.90625 
Q 21.296875 6.109375 26.703125 6.109375 
Q 34.1875 6.109375 38.703125 11.40625 
Q 43.21875 16.703125 43.21875 25.484375 
L 43.21875 27.484375 
z
M 52.203125 31.203125 
L 52.203125 0 
L 43.21875 0 
L 43.21875 8.296875 
Q 40.140625 3.328125 35.546875 0.953125 
Q 30.953125 -1.421875 24.3125 -1.421875 
Q 15.921875 -1.421875 10.953125 3.296875 
Q 6 8.015625 6 15.921875 
Q 6 25.140625 12.171875 29.828125 
Q 18.359375 34.515625 30.609375 34.515625 
L 43.21875 34.515625 
L 43.21875 35.40625 
Q 43.21875 41.609375 39.140625 45 
Q 35.0625 48.390625 27.6875 48.390625 
Q 23 48.390625 18.546875 47.265625 
Q 14.109375 46.140625 10.015625 43.890625 
L 10.015625 52.203125 
Q 14.9375 54.109375 19.578125 55.046875 
Q 24.21875 56 28.609375 56 
Q 40.484375 56 46.34375 49.84375 
Q 52.203125 43.703125 52.203125 31.203125 
z
" id="DejaVuSans-61"/>
      <path d="M 45.40625 27.984375 
Q 45.40625 37.75 41.375 43.109375 
Q 37.359375 48.484375 30.078125 48.484375 
Q 22.859375 48.484375 18.828125 43.109375 
Q 14.796875 37.75 14.796875 27.984375 
Q 14.796875 18.265625 18.828125 12.890625 
Q 22.859375 7.515625 30.078125 7.515625 
Q 37.359375 7.515625 41.375 12.890625 
Q 45.40625 18.265625 45.40625 27.984375 
z
M 54.390625 6.78125 
Q 54.390625 -7.171875 48.1875 -13.984375 
Q 42 -20.796875 29.203125 -20.796875 
Q 24.46875 -20.796875 20.265625 -20.09375 
Q 16.0625 -19.390625 12.109375 -17.921875 
L 12.109375 -9.1875 
Q 16.0625 -11.328125 19.921875 -12.34375 
Q 23.78125 -13.375 27.78125 -13.375 
Q 36.625 -13.375 41.015625 -8.765625 
Q 45.40625 -4.15625 45.40625 5.171875 
L 45.40625 9.625 
Q 42.625 4.78125 38.28125 2.390625 
Q 33.9375 0 27.875 0 
Q 17.828125 0 11.671875 7.65625 
Q 5.515625 15.328125 5.515625 27.984375 
Q 5.515625 40.671875 11.671875 48.328125 
Q 17.828125 56 27.875 56 
Q 33.9375 56 38.28125 53.609375 
Q 42.625 51.21875 45.40625 46.390625 
L 45.40625 54.6875 
L 54.390625 54.6875 
z
" id="DejaVuSans-67"/>
      <path d="M 8.5 21.578125 
L 8.5 54.6875 
L 17.484375 54.6875 
L 17.484375 21.921875 
Q 17.484375 14.15625 20.5 10.265625 
Q 23.53125 6.390625 29.59375 6.390625 
Q 36.859375 6.390625 41.078125 11.03125 
Q 45.3125 15.671875 45.3125 23.6875 
L 45.3125 54.6875 
L 54.296875 54.6875 
L 54.296875 0 
L 45.3125 0 
L 45.3125 8.40625 
Q 42.046875 3.421875 37.71875 1 
Q 33.40625 -1.421875 27.6875 -1.421875 
Q 18.265625 -1.421875 13.375 4.4375 
Q 8.5 10.296875 8.5 21.578125 
z
M 31.109375 56 
z
" id="DejaVuSans-75"/>
     </defs>
     <g transform="translate(22.254687 220.3861)rotate(-90)scale(0.1 -0.1)">
      <use xlink:href="#DejaVuSans-53"/>
      <use x="63.476562" xlink:href="#DejaVuSans-51"/>
      <use x="142.1875" xlink:href="#DejaVuSans-55"/>
      <use x="215.380859" xlink:href="#DejaVuSans-49"/>
      <use x="244.873047" xlink:href="#DejaVuSans-44"/>
      <use x="321.875" xlink:href="#DejaVuSans-20"/>
      <use x="353.662109" xlink:href="#DejaVuSans-56"/>
      <use x="421.960938" xlink:href="#DejaVuSans-6f"/>
      <use x="483.142578" xlink:href="#DejaVuSans-6c"/>
      <use x="510.925781" xlink:href="#DejaVuSans-74"/>
      <use x="550.134766" xlink:href="#DejaVuSans-61"/>
      <use x="611.414062" xlink:href="#DejaVuSans-67"/>
      <use x="674.890625" xlink:href="#DejaVuSans-65"/>
      <use x="736.414062" xlink:href="#DejaVuSans-28"/>
      <use x="775.427734" xlink:href="#DejaVuSans-75"/>
      <use x="838.806641" xlink:href="#DejaVuSans-56"/>
      <use x="907.214844" xlink:href="#DejaVuSans-29"/>
     </g>
    </g>
   </g>
   <g id="line2d_16">
    <defs>
     <path d="M 0 1.5 
C 0.397805 1.5 0.77937 1.341951 1.06066 1.06066 
C 1.341951 0.77937 1.5 0.397805 1.5 0 
C 1.5 -0.397805 1.341951 -0.77937 1.06066 -1.06066 
C 0.77937 -1.341951 0.397805 -1.5 0 -1.5 
C -0.397805 -1.5 -0.77937 -1.341951 -1.06066 -1.06066 
C -1.341951 -0.77937 -1.5 -0.397805 -1.5 0 
C -1.5 0.397805 -1.341951 0.77937 -1.06066 1.06066 
C -0.77937 1.341951 -0.397805 1.5 0 1.5 
z
" id="m8e0c2faf23" style="stroke:#1f77b4;"/>
    </defs>
    <g clip-path="url(#p24833d040a)">
     <use style="fill:#1f77b4;stroke:#1f77b4;" x="56.127378" xlink:href="#m8e0c2faf23" y="218.420125"/>
     <use style="fill:#1f77b4;stroke:#1f77b4;" x="57.799076" xlink:href="#m8e0c2faf23" y="210.834042"/>
     <use style="fill:#1f77b4;stroke:#1f77b4;" x="59.470779" xlink:href="#m8e0c2faf23" y="219.887671"/>
     <use style="fill:#1f77b4;stroke:#1f77b4;" x="61.142479" xlink:href="#m8e0c2faf23" y="189.791692"/>
     <use style="fill:#1f77b4;stroke:#1f77b4;" x="62.814177" xlink:href="#m8e0c2faf23" y="189.791692"/>
     <use style="fill:#1f77b4;stroke:#1f77b4;" x="64.48588" xlink:href="#m8e0c2faf23" y="198.800166"/>
     <use style="fill:#1f77b4;stroke:#1f77b4;" x="66.157579" xlink:href="#m8e0c2faf23" y="195.797341"/>
     <use style="fill:#1f77b4;stroke:#1f77b4;" x="67.829277" xlink:href="#m8e0c2faf23" y="200.312867"/>
     <use style="fill:#1f77b4;stroke:#1f77b4;" x="69.50098" xlink:href="#m8e0c2faf23" y="201.825568"/>
     <use style="fill:#1f77b4;stroke:#1f77b4;" x="71.17268" xlink:href="#m8e0c2faf23" y="204.828393"/>
     <use style="fill:#1f77b4;stroke:#1f77b4;" x="72.844378" xlink:href="#m8e0c2faf23" y="180.738063"/>
     <use style="fill:#1f77b4;stroke:#1f77b4;" x="74.516081" xlink:href="#m8e0c2faf23" y="204.85097"/>
     <use style="fill:#1f77b4;stroke:#1f77b4;" x="76.18778" xlink:href="#m8e0c2faf23" y="185.276166"/>
     <use style="fill:#1f77b4;stroke:#1f77b4;" x="77.859478" xlink:href="#m8e0c2faf23" y="213.882022"/>
     <use style="fill:#1f77b4;stroke:#1f77b4;" x="79.531181" xlink:href="#m8e0c2faf23" y="195.819919"/>
     <use style="fill:#1f77b4;stroke:#1f77b4;" x="81.202881" xlink:href="#m8e0c2faf23" y="183.71831"/>
     <use style="fill:#1f77b4;stroke:#1f77b4;" x="82.874578" xlink:href="#m8e0c2faf23" y="161.163258"/>
     <use style="fill:#1f77b4;stroke:#1f77b4;" x="84.546282" xlink:href="#m8e0c2faf23" y="168.681609"/>
     <use style="fill:#1f77b4;stroke:#1f77b4;" x="86.217979" xlink:href="#m8e0c2faf23" y="192.794516"/>
     <use style="fill:#1f77b4;stroke:#1f77b4;" x="87.889677" xlink:href="#m8e0c2faf23" y="200.335444"/>
     <use style="fill:#1f77b4;stroke:#1f77b4;" x="89.56138" xlink:href="#m8e0c2faf23" y="189.791692"/>
     <use style="fill:#1f77b4;stroke:#1f77b4;" x="91.23308" xlink:href="#m8e0c2faf23" y="183.71831"/>
     <use style="fill:#1f77b4;stroke:#1f77b4;" x="92.904778" xlink:href="#m8e0c2faf23" y="186.743712"/>
     <use style="fill:#1f77b4;stroke:#1f77b4;" x="94.576481" xlink:href="#m8e0c2faf23" y="162.630804"/>
     <use style="fill:#1f77b4;stroke:#1f77b4;" x="96.24818" xlink:href="#m8e0c2faf23" y="168.659031"/>
     <use style="fill:#1f77b4;stroke:#1f77b4;" x="97.853014" xlink:href="#m8e0c2faf23" y="141.565877"/>
     <use style="fill:#1f77b4;stroke:#1f77b4;" x="99.524712" xlink:href="#m8e0c2faf23" y="167.168908"/>
     <use style="fill:#1f77b4;stroke:#1f77b4;" x="101.196413" xlink:href="#m8e0c2faf23" y="147.548948"/>
     <use style="fill:#1f77b4;stroke:#1f77b4;" x="102.868114" xlink:href="#m8e0c2faf23" y="135.515072"/>
     <use style="fill:#1f77b4;stroke:#1f77b4;" x="104.539812" xlink:href="#m8e0c2faf23" y="171.684433"/>
     <use style="fill:#1f77b4;stroke:#1f77b4;" x="106.211512" xlink:href="#m8e0c2faf23" y="150.57435"/>
     <use style="fill:#1f77b4;stroke:#1f77b4;" x="107.883213" xlink:href="#m8e0c2faf23" y="158.137856"/>
     <use style="fill:#1f77b4;stroke:#1f77b4;" x="109.554911" xlink:href="#m8e0c2faf23" y="155.112454"/>
     <use style="fill:#1f77b4;stroke:#1f77b4;" x="111.226612" xlink:href="#m8e0c2faf23" y="143.056"/>
     <use style="fill:#1f77b4;stroke:#1f77b4;" x="112.898314" xlink:href="#m8e0c2faf23" y="140.053175"/>
     <use style="fill:#1f77b4;stroke:#1f77b4;" x="114.570011" xlink:href="#m8e0c2faf23" y="153.599753"/>
     <use style="fill:#1f77b4;stroke:#1f77b4;" x="116.241713" xlink:href="#m8e0c2faf23" y="141.543299"/>
     <use style="fill:#1f77b4;stroke:#1f77b4;" x="117.913414" xlink:href="#m8e0c2faf23" y="134.024949"/>
     <use style="fill:#1f77b4;stroke:#1f77b4;" x="119.585112" xlink:href="#m8e0c2faf23" y="129.486845"/>
     <use style="fill:#1f77b4;stroke:#1f77b4;" x="121.256813" xlink:href="#m8e0c2faf23" y="147.571526"/>
     <use style="fill:#1f77b4;stroke:#1f77b4;" x="122.928514" xlink:href="#m8e0c2faf23" y="141.543299"/>
     <use style="fill:#1f77b4;stroke:#1f77b4;" x="124.600212" xlink:href="#m8e0c2faf23" y="174.687258"/>
     <use style="fill:#1f77b4;stroke:#1f77b4;" x="126.271914" xlink:href="#m8e0c2faf23" y="161.140681"/>
     <use style="fill:#1f77b4;stroke:#1f77b4;" x="127.943615" xlink:href="#m8e0c2faf23" y="165.656207"/>
     <use style="fill:#1f77b4;stroke:#1f77b4;" x="129.615313" xlink:href="#m8e0c2faf23" y="123.458618"/>
     <use style="fill:#1f77b4;stroke:#1f77b4;" x="131.287014" xlink:href="#m8e0c2faf23" y="129.486845"/>
     <use style="fill:#1f77b4;stroke:#1f77b4;" x="132.958715" xlink:href="#m8e0c2faf23" y="88.824536"/>
     <use style="fill:#1f77b4;stroke:#1f77b4;" x="134.630413" xlink:href="#m8e0c2faf23" y="121.968495"/>
     <use style="fill:#1f77b4;stroke:#1f77b4;" x="136.302114" xlink:href="#m8e0c2faf23" y="91.82736"/>
     <use style="fill:#1f77b4;stroke:#1f77b4;" x="137.973816" xlink:href="#m8e0c2faf23" y="97.855587"/>
     <use style="fill:#1f77b4;stroke:#1f77b4;" x="139.578646" xlink:href="#m8e0c2faf23" y="161.163258"/>
     <use style="fill:#1f77b4;stroke:#1f77b4;" x="141.250345" xlink:href="#m8e0c2faf23" y="124.993897"/>
     <use style="fill:#1f77b4;stroke:#1f77b4;" x="142.922047" xlink:href="#m8e0c2faf23" y="106.909216"/>
     <use style="fill:#1f77b4;stroke:#1f77b4;" x="144.593746" xlink:href="#m8e0c2faf23" y="144.568701"/>
     <use style="fill:#1f77b4;stroke:#1f77b4;" x="146.265446" xlink:href="#m8e0c2faf23" y="111.402164"/>
     <use style="fill:#1f77b4;stroke:#1f77b4;" x="147.937147" xlink:href="#m8e0c2faf23" y="115.962845"/>
     <use style="fill:#1f77b4;stroke:#1f77b4;" x="149.608847" xlink:href="#m8e0c2faf23" y="117.475547"/>
     <use style="fill:#1f77b4;stroke:#1f77b4;" x="151.280546" xlink:href="#m8e0c2faf23" y="108.39934"/>
     <use style="fill:#1f77b4;stroke:#1f77b4;" x="152.952248" xlink:href="#m8e0c2faf23" y="126.484021"/>
     <use style="fill:#1f77b4;stroke:#1f77b4;" x="154.623947" xlink:href="#m8e0c2faf23" y="114.404989"/>
     <use style="fill:#1f77b4;stroke:#1f77b4;" x="156.295647" xlink:href="#m8e0c2faf23" y="118.96567"/>
     <use style="fill:#1f77b4;stroke:#1f77b4;" x="157.967348" xlink:href="#m8e0c2faf23" y="102.348535"/>
     <use style="fill:#1f77b4;stroke:#1f77b4;" x="159.639048" xlink:href="#m8e0c2faf23" y="144.591279"/>
     <use style="fill:#1f77b4;stroke:#1f77b4;" x="161.310747" xlink:href="#m8e0c2faf23" y="131.022124"/>
     <use style="fill:#1f77b4;stroke:#1f77b4;" x="162.982449" xlink:href="#m8e0c2faf23" y="141.565877"/>
     <use style="fill:#1f77b4;stroke:#1f77b4;" x="164.654148" xlink:href="#m8e0c2faf23" y="143.056"/>
     <use style="fill:#1f77b4;stroke:#1f77b4;" x="166.325848" xlink:href="#m8e0c2faf23" y="135.515072"/>
     <use style="fill:#1f77b4;stroke:#1f77b4;" x="167.997549" xlink:href="#m8e0c2faf23" y="111.402164"/>
     <use style="fill:#1f77b4;stroke:#1f77b4;" x="169.669249" xlink:href="#m8e0c2faf23" y="109.912041"/>
     <use style="fill:#1f77b4;stroke:#1f77b4;" x="171.340948" xlink:href="#m8e0c2faf23" y="105.396515"/>
     <use style="fill:#1f77b4;stroke:#1f77b4;" x="173.012648" xlink:href="#m8e0c2faf23" y="100.880989"/>
     <use style="fill:#1f77b4;stroke:#1f77b4;" x="174.684347" xlink:href="#m8e0c2faf23" y="108.39934"/>
     <use style="fill:#1f77b4;stroke:#1f77b4;" x="176.356047" xlink:href="#m8e0c2faf23" y="111.402164"/>
     <use style="fill:#1f77b4;stroke:#1f77b4;" x="178.027748" xlink:href="#m8e0c2faf23" y="105.373938"/>
     <use style="fill:#1f77b4;stroke:#1f77b4;" x="179.699448" xlink:href="#m8e0c2faf23" y="128.019299"/>
     <use style="fill:#1f77b4;stroke:#1f77b4;" x="181.304281" xlink:href="#m8e0c2faf23" y="123.458618"/>
     <use style="fill:#1f77b4;stroke:#1f77b4;" x="182.975979" xlink:href="#m8e0c2faf23" y="117.452969"/>
     <use style="fill:#1f77b4;stroke:#1f77b4;" x="184.647682" xlink:href="#m8e0c2faf23" y="118.943092"/>
     <use style="fill:#1f77b4;stroke:#1f77b4;" x="186.319382" xlink:href="#m8e0c2faf23" y="117.430391"/>
     <use style="fill:#1f77b4;stroke:#1f77b4;" x="187.991079" xlink:href="#m8e0c2faf23" y="126.461443"/>
     <use style="fill:#1f77b4;stroke:#1f77b4;" x="189.662783" xlink:href="#m8e0c2faf23" y="121.968495"/>
     <use style="fill:#1f77b4;stroke:#1f77b4;" x="191.334482" xlink:href="#m8e0c2faf23" y="147.571526"/>
     <use style="fill:#1f77b4;stroke:#1f77b4;" x="193.006178" xlink:href="#m8e0c2faf23" y="141.543299"/>
     <use style="fill:#1f77b4;stroke:#1f77b4;" x="194.677881" xlink:href="#m8e0c2faf23" y="141.543299"/>
     <use style="fill:#1f77b4;stroke:#1f77b4;" x="196.349581" xlink:href="#m8e0c2faf23" y="134.024949"/>
     <use style="fill:#1f77b4;stroke:#1f77b4;" x="198.021278" xlink:href="#m8e0c2faf23" y="138.540474"/>
     <use style="fill:#1f77b4;stroke:#1f77b4;" x="199.692982" xlink:href="#m8e0c2faf23" y="149.084227"/>
     <use style="fill:#1f77b4;stroke:#1f77b4;" x="201.364681" xlink:href="#m8e0c2faf23" y="137.027773"/>
     <use style="fill:#1f77b4;stroke:#1f77b4;" x="203.036379" xlink:href="#m8e0c2faf23" y="146.081402"/>
     <use style="fill:#1f77b4;stroke:#1f77b4;" x="204.708082" xlink:href="#m8e0c2faf23" y="147.571526"/>
     <use style="fill:#1f77b4;stroke:#1f77b4;" x="206.379782" xlink:href="#m8e0c2faf23" y="130.999546"/>
     <use style="fill:#1f77b4;stroke:#1f77b4;" x="208.051479" xlink:href="#m8e0c2faf23" y="120.455794"/>
     <use style="fill:#1f77b4;stroke:#1f77b4;" x="209.723183" xlink:href="#m8e0c2faf23" y="135.515072"/>
     <use style="fill:#1f77b4;stroke:#1f77b4;" x="211.394882" xlink:href="#m8e0c2faf23" y="162.630804"/>
     <use style="fill:#1f77b4;stroke:#1f77b4;" x="213.06658" xlink:href="#m8e0c2faf23" y="164.166083"/>
     <use style="fill:#1f77b4;stroke:#1f77b4;" x="214.738283" xlink:href="#m8e0c2faf23" y="138.540474"/>
     <use style="fill:#1f77b4;stroke:#1f77b4;" x="216.409983" xlink:href="#m8e0c2faf23" y="127.996722"/>
     <use style="fill:#1f77b4;stroke:#1f77b4;" x="218.08168" xlink:href="#m8e0c2faf23" y="150.57435"/>
     <use style="fill:#1f77b4;stroke:#1f77b4;" x="219.753384" xlink:href="#m8e0c2faf23" y="143.056"/>
     <use style="fill:#1f77b4;stroke:#1f77b4;" x="221.425083" xlink:href="#m8e0c2faf23" y="158.137856"/>
     <use style="fill:#1f77b4;stroke:#1f77b4;" x="223.029915" xlink:href="#m8e0c2faf23" y="156.625155"/>
     <use style="fill:#1f77b4;stroke:#1f77b4;" x="224.701612" xlink:href="#m8e0c2faf23" y="171.684433"/>
     <use style="fill:#1f77b4;stroke:#1f77b4;" x="226.373312" xlink:href="#m8e0c2faf23" y="130.999546"/>
     <use style="fill:#1f77b4;stroke:#1f77b4;" x="228.045015" xlink:href="#m8e0c2faf23" y="158.137856"/>
     <use style="fill:#1f77b4;stroke:#1f77b4;" x="229.716713" xlink:href="#m8e0c2faf23" y="127.996722"/>
     <use style="fill:#1f77b4;stroke:#1f77b4;" x="231.388412" xlink:href="#m8e0c2faf23" y="129.486845"/>
     <use style="fill:#1f77b4;stroke:#1f77b4;" x="233.060116" xlink:href="#m8e0c2faf23" y="156.625155"/>
     <use style="fill:#1f77b4;stroke:#1f77b4;" x="234.731813" xlink:href="#m8e0c2faf23" y="168.659031"/>
     <use style="fill:#1f77b4;stroke:#1f77b4;" x="236.403513" xlink:href="#m8e0c2faf23" y="161.140681"/>
     <use style="fill:#1f77b4;stroke:#1f77b4;" x="238.075216" xlink:href="#m8e0c2faf23" y="143.033422"/>
     <use style="fill:#1f77b4;stroke:#1f77b4;" x="239.746914" xlink:href="#m8e0c2faf23" y="171.684433"/>
     <use style="fill:#1f77b4;stroke:#1f77b4;" x="241.418613" xlink:href="#m8e0c2faf23" y="124.993897"/>
     <use style="fill:#1f77b4;stroke:#1f77b4;" x="243.090317" xlink:href="#m8e0c2faf23" y="186.743712"/>
     <use style="fill:#1f77b4;stroke:#1f77b4;" x="244.762014" xlink:href="#m8e0c2faf23" y="179.225361"/>
     <use style="fill:#1f77b4;stroke:#1f77b4;" x="246.433714" xlink:href="#m8e0c2faf23" y="161.140681"/>
     <use style="fill:#1f77b4;stroke:#1f77b4;" x="248.105417" xlink:href="#m8e0c2faf23" y="170.19431"/>
     <use style="fill:#1f77b4;stroke:#1f77b4;" x="249.777115" xlink:href="#m8e0c2faf23" y="165.633629"/>
     <use style="fill:#1f77b4;stroke:#1f77b4;" x="251.448814" xlink:href="#m8e0c2faf23" y="170.19431"/>
     <use style="fill:#1f77b4;stroke:#1f77b4;" x="253.120518" xlink:href="#m8e0c2faf23" y="155.112454"/>
     <use style="fill:#1f77b4;stroke:#1f77b4;" x="254.792215" xlink:href="#m8e0c2faf23" y="168.659031"/>
     <use style="fill:#1f77b4;stroke:#1f77b4;" x="256.463915" xlink:href="#m8e0c2faf23" y="168.659031"/>
     <use style="fill:#1f77b4;stroke:#1f77b4;" x="258.135618" xlink:href="#m8e0c2faf23" y="170.19431"/>
     <use style="fill:#1f77b4;stroke:#1f77b4;" x="259.807316" xlink:href="#m8e0c2faf23" y="185.253588"/>
     <use style="fill:#1f77b4;stroke:#1f77b4;" x="261.479013" xlink:href="#m8e0c2faf23" y="186.743712"/>
     <use style="fill:#1f77b4;stroke:#1f77b4;" x="263.150717" xlink:href="#m8e0c2faf23" y="162.630804"/>
     <use style="fill:#1f77b4;stroke:#1f77b4;" x="264.75555" xlink:href="#m8e0c2faf23" y="198.822743"/>
     <use style="fill:#1f77b4;stroke:#1f77b4;" x="266.427248" xlink:href="#m8e0c2faf23" y="170.19431"/>
     <use style="fill:#1f77b4;stroke:#1f77b4;" x="268.098951" xlink:href="#m8e0c2faf23" y="216.862269"/>
     <use style="fill:#1f77b4;stroke:#1f77b4;" x="269.770651" xlink:href="#m8e0c2faf23" y="185.253588"/>
     <use style="fill:#1f77b4;stroke:#1f77b4;" x="271.442348" xlink:href="#m8e0c2faf23" y="182.250764"/>
     <use style="fill:#1f77b4;stroke:#1f77b4;" x="273.114052" xlink:href="#m8e0c2faf23" y="204.828393"/>
     <use style="fill:#1f77b4;stroke:#1f77b4;" x="274.785751" xlink:href="#m8e0c2faf23" y="164.166083"/>
     <use style="fill:#1f77b4;stroke:#1f77b4;" x="276.457449" xlink:href="#m8e0c2faf23" y="191.281815"/>
     <use style="fill:#1f77b4;stroke:#1f77b4;" x="278.129152" xlink:href="#m8e0c2faf23" y="194.28464"/>
     <use style="fill:#1f77b4;stroke:#1f77b4;" x="279.800852" xlink:href="#m8e0c2faf23" y="201.825568"/>
     <use style="fill:#1f77b4;stroke:#1f77b4;" x="281.472548" xlink:href="#m8e0c2faf23" y="149.084227"/>
     <use style="fill:#1f77b4;stroke:#1f77b4;" x="283.144251" xlink:href="#m8e0c2faf23" y="171.661856"/>
     <use style="fill:#1f77b4;stroke:#1f77b4;" x="284.81595" xlink:href="#m8e0c2faf23" y="143.078578"/>
     <use style="fill:#1f77b4;stroke:#1f77b4;" x="286.487648" xlink:href="#m8e0c2faf23" y="186.76629"/>
     <use style="fill:#1f77b4;stroke:#1f77b4;" x="288.159351" xlink:href="#m8e0c2faf23" y="162.630804"/>
     <use style="fill:#1f77b4;stroke:#1f77b4;" x="289.831051" xlink:href="#m8e0c2faf23" y="153.599753"/>
     <use style="fill:#1f77b4;stroke:#1f77b4;" x="291.502748" xlink:href="#m8e0c2faf23" y="155.135032"/>
     <use style="fill:#1f77b4;stroke:#1f77b4;" x="293.174452" xlink:href="#m8e0c2faf23" y="201.825568"/>
     <use style="fill:#1f77b4;stroke:#1f77b4;" x="294.846151" xlink:href="#m8e0c2faf23" y="200.312867"/>
     <use style="fill:#1f77b4;stroke:#1f77b4;" x="296.517849" xlink:href="#m8e0c2faf23" y="173.219712"/>
     <use style="fill:#1f77b4;stroke:#1f77b4;" x="298.189552" xlink:href="#m8e0c2faf23" y="159.62798"/>
     <use style="fill:#1f77b4;stroke:#1f77b4;" x="299.861252" xlink:href="#m8e0c2faf23" y="176.222537"/>
     <use style="fill:#1f77b4;stroke:#1f77b4;" x="301.532949" xlink:href="#m8e0c2faf23" y="170.171732"/>
     <use style="fill:#1f77b4;stroke:#1f77b4;" x="303.204653" xlink:href="#m8e0c2faf23" y="179.225361"/>
     <use style="fill:#1f77b4;stroke:#1f77b4;" x="304.876352" xlink:href="#m8e0c2faf23" y="165.656207"/>
     <use style="fill:#1f77b4;stroke:#1f77b4;" x="306.481184" xlink:href="#m8e0c2faf23" y="147.571526"/>
     <use style="fill:#1f77b4;stroke:#1f77b4;" x="308.152882" xlink:href="#m8e0c2faf23" y="165.656207"/>
     <use style="fill:#1f77b4;stroke:#1f77b4;" x="309.824583" xlink:href="#m8e0c2faf23" y="176.199959"/>
     <use style="fill:#1f77b4;stroke:#1f77b4;" x="311.496284" xlink:href="#m8e0c2faf23" y="174.687258"/>
     <use style="fill:#1f77b4;stroke:#1f77b4;" x="313.167982" xlink:href="#m8e0c2faf23" y="180.715485"/>
     <use style="fill:#1f77b4;stroke:#1f77b4;" x="314.839684" xlink:href="#m8e0c2faf23" y="201.825568"/>
     <use style="fill:#1f77b4;stroke:#1f77b4;" x="316.511385" xlink:href="#m8e0c2faf23" y="165.656207"/>
     <use style="fill:#1f77b4;stroke:#1f77b4;" x="318.183083" xlink:href="#m8e0c2faf23" y="155.112454"/>
     <use style="fill:#1f77b4;stroke:#1f77b4;" x="319.854784" xlink:href="#m8e0c2faf23" y="189.769114"/>
     <use style="fill:#1f77b4;stroke:#1f77b4;" x="321.526485" xlink:href="#m8e0c2faf23" y="159.650557"/>
     <use style="fill:#1f77b4;stroke:#1f77b4;" x="323.198183" xlink:href="#m8e0c2faf23" y="162.653382"/>
     <use style="fill:#1f77b4;stroke:#1f77b4;" x="324.869884" xlink:href="#m8e0c2faf23" y="141.543299"/>
     <use style="fill:#1f77b4;stroke:#1f77b4;" x="326.541586" xlink:href="#m8e0c2faf23" y="135.515072"/>
     <use style="fill:#1f77b4;stroke:#1f77b4;" x="328.213284" xlink:href="#m8e0c2faf23" y="164.166083"/>
     <use style="fill:#1f77b4;stroke:#1f77b4;" x="329.884985" xlink:href="#m8e0c2faf23" y="191.281815"/>
     <use style="fill:#1f77b4;stroke:#1f77b4;" x="331.556686" xlink:href="#m8e0c2faf23" y="182.250764"/>
     <use style="fill:#1f77b4;stroke:#1f77b4;" x="333.228384" xlink:href="#m8e0c2faf23" y="183.763465"/>
     <use style="fill:#1f77b4;stroke:#1f77b4;" x="334.900085" xlink:href="#m8e0c2faf23" y="173.197135"/>
     <use style="fill:#1f77b4;stroke:#1f77b4;" x="336.571787" xlink:href="#m8e0c2faf23" y="180.715485"/>
     <use style="fill:#1f77b4;stroke:#1f77b4;" x="338.243484" xlink:href="#m8e0c2faf23" y="177.690083"/>
     <use style="fill:#1f77b4;stroke:#1f77b4;" x="339.915186" xlink:href="#m8e0c2faf23" y="159.62798"/>
     <use style="fill:#1f77b4;stroke:#1f77b4;" x="341.586887" xlink:href="#m8e0c2faf23" y="186.743712"/>
     <use style="fill:#1f77b4;stroke:#1f77b4;" x="343.258585" xlink:href="#m8e0c2faf23" y="164.166083"/>
     <use style="fill:#1f77b4;stroke:#1f77b4;" x="344.930286" xlink:href="#m8e0c2faf23" y="164.166083"/>
     <use style="fill:#1f77b4;stroke:#1f77b4;" x="346.601988" xlink:href="#m8e0c2faf23" y="179.225361"/>
     <use style="fill:#1f77b4;stroke:#1f77b4;" x="348.214842" xlink:href="#m8e0c2faf23" y="168.659031"/>
     <use style="fill:#1f77b4;stroke:#1f77b4;" x="349.886541" xlink:href="#m8e0c2faf23" y="174.687258"/>
     <use style="fill:#1f77b4;stroke:#1f77b4;" x="351.558243" xlink:href="#m8e0c2faf23" y="152.109629"/>
     <use style="fill:#1f77b4;stroke:#1f77b4;" x="353.22994" xlink:href="#m8e0c2faf23" y="182.250764"/>
     <use style="fill:#1f77b4;stroke:#1f77b4;" x="354.90164" xlink:href="#m8e0c2faf23" y="174.709836"/>
     <use style="fill:#1f77b4;stroke:#1f77b4;" x="356.573341" xlink:href="#m8e0c2faf23" y="189.769114"/>
     <use style="fill:#1f77b4;stroke:#1f77b4;" x="358.245041" xlink:href="#m8e0c2faf23" y="162.653382"/>
     <use style="fill:#1f77b4;stroke:#1f77b4;" x="359.91674" xlink:href="#m8e0c2faf23" y="176.222537"/>
     <use style="fill:#1f77b4;stroke:#1f77b4;" x="361.588442" xlink:href="#m8e0c2faf23" y="155.112454"/>
     <use style="fill:#1f77b4;stroke:#1f77b4;" x="363.260141" xlink:href="#m8e0c2faf23" y="131.022124"/>
     <use style="fill:#1f77b4;stroke:#1f77b4;" x="364.931841" xlink:href="#m8e0c2faf23" y="161.140681"/>
     <use style="fill:#1f77b4;stroke:#1f77b4;" x="366.603542" xlink:href="#m8e0c2faf23" y="141.543299"/>
     <use style="fill:#1f77b4;stroke:#1f77b4;" x="368.275242" xlink:href="#m8e0c2faf23" y="155.135032"/>
     <use style="fill:#1f77b4;stroke:#1f77b4;" x="369.946941" xlink:href="#m8e0c2faf23" y="150.619506"/>
     <use style="fill:#1f77b4;stroke:#1f77b4;" x="371.618643" xlink:href="#m8e0c2faf23" y="161.140681"/>
     <use style="fill:#1f77b4;stroke:#1f77b4;" x="373.290342" xlink:href="#m8e0c2faf23" y="152.109629"/>
     <use style="fill:#1f77b4;stroke:#1f77b4;" x="374.962042" xlink:href="#m8e0c2faf23" y="159.62798"/>
     <use style="fill:#1f77b4;stroke:#1f77b4;" x="376.633743" xlink:href="#m8e0c2faf23" y="164.166083"/>
     <use style="fill:#1f77b4;stroke:#1f77b4;" x="378.305443" xlink:href="#m8e0c2faf23" y="153.62233"/>
     <use style="fill:#1f77b4;stroke:#1f77b4;" x="379.977142" xlink:href="#m8e0c2faf23" y="165.656207"/>
     <use style="fill:#1f77b4;stroke:#1f77b4;" x="381.648844" xlink:href="#m8e0c2faf23" y="180.715485"/>
     <use style="fill:#1f77b4;stroke:#1f77b4;" x="383.320543" xlink:href="#m8e0c2faf23" y="159.650557"/>
     <use style="fill:#1f77b4;stroke:#1f77b4;" x="384.992243" xlink:href="#m8e0c2faf23" y="173.197135"/>
     <use style="fill:#1f77b4;stroke:#1f77b4;" x="386.663944" xlink:href="#m8e0c2faf23" y="170.19431"/>
     <use style="fill:#1f77b4;stroke:#1f77b4;" x="388.335644" xlink:href="#m8e0c2faf23" y="147.571526"/>
     <use style="fill:#1f77b4;stroke:#1f77b4;" x="389.932451" xlink:href="#m8e0c2faf23" y="149.106805"/>
     <use style="fill:#1f77b4;stroke:#1f77b4;" x="391.604149" xlink:href="#m8e0c2faf23" y="143.056"/>
     <use style="fill:#1f77b4;stroke:#1f77b4;" x="393.275852" xlink:href="#m8e0c2faf23" y="129.509423"/>
     <use style="fill:#1f77b4;stroke:#1f77b4;" x="394.947552" xlink:href="#m8e0c2faf23" y="158.137856"/>
     <use style="fill:#1f77b4;stroke:#1f77b4;" x="396.619249" xlink:href="#m8e0c2faf23" y="167.168908"/>
     <use style="fill:#1f77b4;stroke:#1f77b4;" x="398.290953" xlink:href="#m8e0c2faf23" y="141.565877"/>
     <use style="fill:#1f77b4;stroke:#1f77b4;" x="399.962652" xlink:href="#m8e0c2faf23" y="180.715485"/>
     <use style="fill:#1f77b4;stroke:#1f77b4;" x="401.63435" xlink:href="#m8e0c2faf23" y="144.546124"/>
     <use style="fill:#1f77b4;stroke:#1f77b4;" x="403.306053" xlink:href="#m8e0c2faf23" y="134.002371"/>
     <use style="fill:#1f77b4;stroke:#1f77b4;" x="404.977753" xlink:href="#m8e0c2faf23" y="124.993897"/>
     <use style="fill:#1f77b4;stroke:#1f77b4;" x="406.64945" xlink:href="#m8e0c2faf23" y="155.135032"/>
     <use style="fill:#1f77b4;stroke:#1f77b4;" x="408.321154" xlink:href="#m8e0c2faf23" y="137.050351"/>
     <use style="fill:#1f77b4;stroke:#1f77b4;" x="409.992853" xlink:href="#m8e0c2faf23" y="153.599753"/>
     <use style="fill:#1f77b4;stroke:#1f77b4;" x="411.664551" xlink:href="#m8e0c2faf23" y="159.62798"/>
     <use style="fill:#1f77b4;stroke:#1f77b4;" x="413.336254" xlink:href="#m8e0c2faf23" y="165.656207"/>
     <use style="fill:#1f77b4;stroke:#1f77b4;" x="415.007954" xlink:href="#m8e0c2faf23" y="147.571526"/>
    </g>
   </g>
   <g id="patch_3">
    <path d="M 57.6 305.0208 
L 57.6 41.1264 
" style="fill:none;stroke:#000000;stroke-linecap:square;stroke-linejoin:miter;stroke-width:0.8;"/>
   </g>
   <g id="patch_4">
    <path d="M 414.72 305.0208 
L 414.72 41.1264 
" style="fill:none;stroke:#000000;stroke-linecap:square;stroke-linejoin:miter;stroke-width:0.8;"/>
   </g>
   <g id="patch_5">
    <path d="M 57.600002 305.0208 
L 414.720001 305.0208 
" style="fill:none;stroke:#000000;stroke-linecap:square;stroke-linejoin:miter;stroke-width:0.8;"/>
   </g>
   <g id="patch_6">
    <path d="M 57.600002 41.1264 
L 414.720001 41.1264 
" style="fill:none;stroke:#000000;stroke-linecap:square;stroke-linejoin:miter;stroke-width:0.8;"/>
   </g>
  </g>
 </g>
 <defs>
  <clipPath id="p24833d040a">
   <rect height="263.8944" width="357.12" x="57.6" y="41.1264"/>
  </clipPath>
 </defs>
</svg>
