<?xml version="1.0" encoding="utf-8" standalone="no"?>
<!DOCTYPE svg PUBLIC "-//W3C//DTD SVG 1.1//EN"
  "http://www.w3.org/Graphics/SVG/1.1/DTD/svg11.dtd">
<!-- Created with matplotlib (http://matplotlib.org/) -->
<svg height="430pt" version="1.1" viewBox="0 0 576 430" width="576pt" xmlns="http://www.w3.org/2000/svg" xmlns:xlink="http://www.w3.org/1999/xlink">
 <defs>
  <style type="text/css">
*{stroke-linecap:butt;stroke-linejoin:round;}
  </style>
 </defs>
 <g id="figure_1">
  <g id="patch_1">
   <path d="
M0 430.2
L576 430.2
L576 0
L0 0
z
" style="fill:#ffffff;"/>
  </g>
  <g id="axes_1">
   <g id="patch_2">
    <path d="
M72 387.18
L518.4 387.18
L518.4 43.02
L72 43.02
z
" style="fill:#ffffff;"/>
   </g>
   <g id="line2d_1">
    <defs>
     <path d="
M0 1.5
C0.397805 1.5 0.77937 1.34195 1.06066 1.06066
C1.34195 0.77937 1.5 0.397805 1.5 0
C1.5 -0.397805 1.34195 -0.77937 1.06066 -1.06066
C0.77937 -1.34195 0.397805 -1.5 0 -1.5
C-0.397805 -1.5 -0.77937 -1.34195 -1.06066 -1.06066
C-1.34195 -0.77937 -1.5 -0.397805 -1.5 0
C-1.5 0.397805 -1.34195 0.77937 -1.06066 1.06066
C-0.77937 1.34195 -0.397805 1.5 0 1.5
z
" id="m76a7ce5b4a" style="stroke:#0000ff;stroke-width:0.5;"/>
    </defs>
    <g clip-path="url(#p8092a36277)">
     <use style="fill:#0000ff;stroke:#0000ff;stroke-width:0.5;" x="72.010296634" xlink:href="#m76a7ce5b4a" y="347.9480544"/>
     <use style="fill:#0000ff;stroke:#0000ff;stroke-width:0.5;" x="75.8675141594" xlink:href="#m76a7ce5b4a" y="349.2512736"/>
     <use style="fill:#0000ff;stroke:#0000ff;stroke-width:0.5;" x="79.7400761102" xlink:href="#m76a7ce5b4a" y="351.7785552"/>
     <use style="fill:#0000ff;stroke:#0000ff;stroke-width:0.5;" x="83.5619487299" xlink:href="#m76a7ce5b4a" y="351.840504"/>
     <use style="fill:#0000ff;stroke:#0000ff;stroke-width:0.5;" x="87.5083003563" xlink:href="#m76a7ce5b4a" y="351.106296"/>
     <use style="fill:#0000ff;stroke:#0000ff;stroke-width:0.5;" x="91.3639460451" xlink:href="#m76a7ce5b4a" y="347.028"/>
     <use style="fill:#0000ff;stroke:#0000ff;stroke-width:0.5;" x="95.2036568675" xlink:href="#m76a7ce5b4a" y="340.5772944"/>
     <use style="fill:#0000ff;stroke:#0000ff;stroke-width:0.5;" x="99.1036810725" xlink:href="#m76a7ce5b4a" y="336.5632416"/>
     <use style="fill:#0000ff;stroke:#0000ff;stroke-width:0.5;" x="102.956487599" xlink:href="#m76a7ce5b4a" y="333.4830096"/>
     <use style="fill:#0000ff;stroke:#0000ff;stroke-width:0.5;" x="106.802188884" xlink:href="#m76a7ce5b4a" y="324.519936"/>
     <use style="fill:#0000ff;stroke:#0000ff;stroke-width:0.5;" x="110.651477016" xlink:href="#m76a7ce5b4a" y="318.8825952"/>
     <use style="fill:#0000ff;stroke:#0000ff;stroke-width:0.5;" x="114.4677071" xlink:href="#m76a7ce5b4a" y="311.7722496"/>
     <use style="fill:#0000ff;stroke:#0000ff;stroke-width:0.5;" x="118.400814777" xlink:href="#m76a7ce5b4a" y="300.663912"/>
     <use style="fill:#0000ff;stroke:#0000ff;stroke-width:0.5;" x="122.411800429" xlink:href="#m76a7ce5b4a" y="292.8331248"/>
     <use style="fill:#0000ff;stroke:#0000ff;stroke-width:0.5;" x="126.257550609" xlink:href="#m76a7ce5b4a" y="280.0854384"/>
     <use style="fill:#0000ff;stroke:#0000ff;stroke-width:0.5;" x="130.107304209" xlink:href="#m76a7ce5b4a" y="265.6662816"/>
     <use style="fill:#0000ff;stroke:#0000ff;stroke-width:0.5;" x="133.959455558" xlink:href="#m76a7ce5b4a" y="256.3028352"/>
     <use style="fill:#0000ff;stroke:#0000ff;stroke-width:0.5;" x="137.80432565" xlink:href="#m76a7ce5b4a" y="247.0196928"/>
     <use style="fill:#0000ff;stroke:#0000ff;stroke-width:0.5;" x="141.592784081" xlink:href="#m76a7ce5b4a" y="233.5194432"/>
     <use style="fill:#0000ff;stroke:#0000ff;stroke-width:0.5;" x="145.441242974" xlink:href="#m76a7ce5b4a" y="225.5980272"/>
     <use style="fill:#0000ff;stroke:#0000ff;stroke-width:0.5;" x="149.405241726" xlink:href="#m76a7ce5b4a" y="212.0668032"/>
     <use style="fill:#0000ff;stroke:#0000ff;stroke-width:0.5;" x="153.081127171" xlink:href="#m76a7ce5b4a" y="200.1313344"/>
     <use style="fill:#0000ff;stroke:#0000ff;stroke-width:0.5;" x="156.986050531" xlink:href="#m76a7ce5b4a" y="190.4478192"/>
     <use style="fill:#0000ff;stroke:#0000ff;stroke-width:0.5;" x="160.950714238" xlink:href="#m76a7ce5b4a" y="181.636176"/>
     <use style="fill:#0000ff;stroke:#0000ff;stroke-width:0.5;" x="164.857082897" xlink:href="#m76a7ce5b4a" y="169.424232"/>
     <use style="fill:#0000ff;stroke:#0000ff;stroke-width:0.5;" x="168.764427475" xlink:href="#m76a7ce5b4a" y="159.83364"/>
     <use style="fill:#0000ff;stroke:#0000ff;stroke-width:0.5;" x="173.344640112" xlink:href="#m76a7ce5b4a" y="151.4510496"/>
     <use style="fill:#0000ff;stroke:#0000ff;stroke-width:0.5;" x="177.273965368" xlink:href="#m76a7ce5b4a" y="141.4451712"/>
     <use style="fill:#0000ff;stroke:#0000ff;stroke-width:0.5;" x="181.208330592" xlink:href="#m76a7ce5b4a" y="133.585704"/>
     <use style="fill:#0000ff;stroke:#0000ff;stroke-width:0.5;" x="184.44278951" xlink:href="#m76a7ce5b4a" y="126.6141696"/>
     <use style="fill:#0000ff;stroke:#0000ff;stroke-width:0.5;" x="188.376530849" xlink:href="#m76a7ce5b4a" y="122.9213328"/>
     <use style="fill:#0000ff;stroke:#0000ff;stroke-width:0.5;" x="192.322411531" xlink:href="#m76a7ce5b4a" y="117.2507232"/>
     <use style="fill:#0000ff;stroke:#0000ff;stroke-width:0.5;" x="196.258937859" xlink:href="#m76a7ce5b4a" y="114.0179136"/>
     <use style="fill:#0000ff;stroke:#0000ff;stroke-width:0.5;" x="200.185497684" xlink:href="#m76a7ce5b4a" y="108.9300816"/>
     <use style="fill:#0000ff;stroke:#0000ff;stroke-width:0.5;" x="204.117531654" xlink:href="#m76a7ce5b4a" y="106.0666704"/>
     <use style="fill:#0000ff;stroke:#0000ff;stroke-width:0.5;" x="208.048374572" xlink:href="#m76a7ce5b4a" y="103.5841296"/>
     <use style="fill:#0000ff;stroke:#0000ff;stroke-width:0.5;" x="211.979710339" xlink:href="#m76a7ce5b4a" y="101.0086656"/>
     <use style="fill:#0000ff;stroke:#0000ff;stroke-width:0.5;" x="215.913185696" xlink:href="#m76a7ce5b4a" y="98.051184"/>
     <use style="fill:#0000ff;stroke:#0000ff;stroke-width:0.5;" x="219.850588201" xlink:href="#m76a7ce5b4a" y="98.1590208"/>
     <use style="fill:#0000ff;stroke:#0000ff;stroke-width:0.5;" x="223.780218553" xlink:href="#m76a7ce5b4a" y="96.7341984"/>
     <use style="fill:#0000ff;stroke:#0000ff;stroke-width:0.5;" x="227.712049125" xlink:href="#m76a7ce5b4a" y="97.1471904"/>
     <use style="fill:#0000ff;stroke:#0000ff;stroke-width:0.5;" x="230.833950703" xlink:href="#m76a7ce5b4a" y="97.7620896"/>
     <use style="fill:#0000ff;stroke:#0000ff;stroke-width:0.5;" x="234.76192258" xlink:href="#m76a7ce5b4a" y="101.3769168"/>
     <use style="fill:#0000ff;stroke:#0000ff;stroke-width:0.5;" x="238.696686777" xlink:href="#m76a7ce5b4a" y="102.7248768"/>
     <use style="fill:#0000ff;stroke:#0000ff;stroke-width:0.5;" x="242.627081828" xlink:href="#m76a7ce5b4a" y="109.3751952"/>
     <use style="fill:#0000ff;stroke:#0000ff;stroke-width:0.5;" x="246.559415027" xlink:href="#m76a7ce5b4a" y="112.19616"/>
     <use style="fill:#0000ff;stroke:#0000ff;stroke-width:0.5;" x="250.611831293" xlink:href="#m76a7ce5b4a" y="116.4545664"/>
     <use style="fill:#0000ff;stroke:#0000ff;stroke-width:0.5;" x="254.544729706" xlink:href="#m76a7ce5b4a" y="121.5263376"/>
     <use style="fill:#0000ff;stroke:#0000ff;stroke-width:0.5;" x="258.468011692" xlink:href="#m76a7ce5b4a" y="126.5671344"/>
     <use style="fill:#0000ff;stroke:#0000ff;stroke-width:0.5;" x="262.401064607" xlink:href="#m76a7ce5b4a" y="132.6518832"/>
     <use style="fill:#0000ff;stroke:#0000ff;stroke-width:0.5;" x="266.331766712" xlink:href="#m76a7ce5b4a" y="139.9893744"/>
     <use style="fill:#0000ff;stroke:#0000ff;stroke-width:0.5;" x="270.729945937" xlink:href="#m76a7ce5b4a" y="149.2438368"/>
     <use style="fill:#0000ff;stroke:#0000ff;stroke-width:0.5;" x="273.963094503" xlink:href="#m76a7ce5b4a" y="156.8612448"/>
     <use style="fill:#0000ff;stroke:#0000ff;stroke-width:0.5;" x="277.880286283" xlink:href="#m76a7ce5b4a" y="164.0920464"/>
     <use style="fill:#0000ff;stroke:#0000ff;stroke-width:0.5;" x="281.801839387" xlink:href="#m76a7ce5b4a" y="175.4780064"/>
     <use style="fill:#0000ff;stroke:#0000ff;stroke-width:0.5;" x="285.730120272" xlink:href="#m76a7ce5b4a" y="182.4644544"/>
     <use style="fill:#0000ff;stroke:#0000ff;stroke-width:0.5;" x="289.656582309" xlink:href="#m76a7ce5b4a" y="193.6955424"/>
     <use style="fill:#0000ff;stroke:#0000ff;stroke-width:0.5;" x="293.577353113" xlink:href="#m76a7ce5b4a" y="204.0077232"/>
     <use style="fill:#0000ff;stroke:#0000ff;stroke-width:0.5;" x="297.508489394" xlink:href="#m76a7ce5b4a" y="215.3936832"/>
     <use style="fill:#0000ff;stroke:#0000ff;stroke-width:0.5;" x="301.43416913" xlink:href="#m76a7ce5b4a" y="226.531848"/>
     <use style="fill:#0000ff;stroke:#0000ff;stroke-width:0.5;" x="305.372013633" xlink:href="#m76a7ce5b4a" y="235.112904"/>
     <use style="fill:#0000ff;stroke:#0000ff;stroke-width:0.5;" x="309.312948224" xlink:href="#m76a7ce5b4a" y="247.829616"/>
     <use style="fill:#0000ff;stroke:#0000ff;stroke-width:0.5;" x="313.243556451" xlink:href="#m76a7ce5b4a" y="258.8932128"/>
     <use style="fill:#0000ff;stroke:#0000ff;stroke-width:0.5;" x="317.167456455" xlink:href="#m76a7ce5b4a" y="271.8875472"/>
     <use style="fill:#0000ff;stroke:#0000ff;stroke-width:0.5;" x="320.399059978" xlink:href="#m76a7ce5b4a" y="278.7053568"/>
     <use style="fill:#0000ff;stroke:#0000ff;stroke-width:0.5;" x="324.328103605" xlink:href="#m76a7ce5b4a" y="289.3846416"/>
     <use style="fill:#0000ff;stroke:#0000ff;stroke-width:0.5;" x="328.245784324" xlink:href="#m76a7ce5b4a" y="302.3342352"/>
     <use style="fill:#0000ff;stroke:#0000ff;stroke-width:0.5;" x="332.183883076" xlink:href="#m76a7ce5b4a" y="313.24296"/>
     <use style="fill:#0000ff;stroke:#0000ff;stroke-width:0.5;" x="336.102854589" xlink:href="#m76a7ce5b4a" y="320.229408"/>
     <use style="fill:#0000ff;stroke:#0000ff;stroke-width:0.5;" x="340.025463799" xlink:href="#m76a7ce5b4a" y="325.3929552"/>
     <use style="fill:#0000ff;stroke:#0000ff;stroke-width:0.5;" x="343.947544956" xlink:href="#m76a7ce5b4a" y="333.3453456"/>
     <use style="fill:#0000ff;stroke:#0000ff;stroke-width:0.5;" x="347.879443978" xlink:href="#m76a7ce5b4a" y="339.5815248"/>
     <use style="fill:#0000ff;stroke:#0000ff;stroke-width:0.5;" x="351.797378945" xlink:href="#m76a7ce5b4a" y="344.6383824"/>
     <use style="fill:#0000ff;stroke:#0000ff;stroke-width:0.5;" x="355.720222844" xlink:href="#m76a7ce5b4a" y="347.9182272"/>
     <use style="fill:#0000ff;stroke:#0000ff;stroke-width:0.5;" x="359.647447623" xlink:href="#m76a7ce5b4a" y="349.7881632"/>
     <use style="fill:#0000ff;stroke:#0000ff;stroke-width:0.5;" x="362.882141232" xlink:href="#m76a7ce5b4a" y="352.4232816"/>
     <use style="fill:#0000ff;stroke:#0000ff;stroke-width:0.5;" x="366.829803601" xlink:href="#m76a7ce5b4a" y="352.6515744"/>
     <use style="fill:#0000ff;stroke:#0000ff;stroke-width:0.5;" x="370.748775115" xlink:href="#m76a7ce5b4a" y="353.8641648"/>
     <use style="fill:#0000ff;stroke:#0000ff;stroke-width:0.5;" x="374.682492986" xlink:href="#m76a7ce5b4a" y="352.546032"/>
     <use style="fill:#0000ff;stroke:#0000ff;stroke-width:0.5;" x="378.601503614" xlink:href="#m76a7ce5b4a" y="347.2436736"/>
     <use style="fill:#0000ff;stroke:#0000ff;stroke-width:0.5;" x="382.528474147" xlink:href="#m76a7ce5b4a" y="346.0322304"/>
     <use style="fill:#0000ff;stroke:#0000ff;stroke-width:0.5;" x="386.452354593" xlink:href="#m76a7ce5b4a" y="340.179216"/>
     <use style="fill:#0000ff;stroke:#0000ff;stroke-width:0.5;" x="390.395381836" xlink:href="#m76a7ce5b4a" y="333.14688"/>
     <use style="fill:#0000ff;stroke:#0000ff;stroke-width:0.5;" x="394.312534503" xlink:href="#m76a7ce5b4a" y="326.8636656"/>
     <use style="fill:#0000ff;stroke:#0000ff;stroke-width:0.5;" x="398.237959991" xlink:href="#m76a7ce5b4a" y="317.5782288"/>
     <use style="fill:#0000ff;stroke:#0000ff;stroke-width:0.5;" x="402.155112658" xlink:href="#m76a7ce5b4a" y="308.9971728"/>
     <use style="fill:#0000ff;stroke:#0000ff;stroke-width:0.5;" x="406.088810971" xlink:href="#m76a7ce5b4a" y="299.61996"/>
     <use style="fill:#0000ff;stroke:#0000ff;stroke-width:0.5;" x="409.324814932" xlink:href="#m76a7ce5b4a" y="290.7027744"/>
     <use style="fill:#0000ff;stroke:#0000ff;stroke-width:0.5;" x="413.239894503" xlink:href="#m76a7ce5b4a" y="283.1943504"/>
     <use style="fill:#0000ff;stroke:#0000ff;stroke-width:0.5;" x="417.166356539" xlink:href="#m76a7ce5b4a" y="274.2771648"/>
     <use style="fill:#0000ff;stroke:#0000ff;stroke-width:0.5;" x="421.098020872" xlink:href="#m76a7ce5b4a" y="265.2819696"/>
     <use style="fill:#0000ff;stroke:#0000ff;stroke-width:0.5;" x="425.030174142" xlink:href="#m76a7ce5b4a" y="254.5717104"/>
     <use style="fill:#0000ff;stroke:#0000ff;stroke-width:0.5;" x="428.953546095" xlink:href="#m76a7ce5b4a" y="242.9127168"/>
     <use style="fill:#0000ff;stroke:#0000ff;stroke-width:0.5;" x="432.88362627" xlink:href="#m76a7ce5b4a" y="231.895008"/>
     <use style="fill:#0000ff;stroke:#0000ff;stroke-width:0.5;" x="436.80027044" xlink:href="#m76a7ce5b4a" y="222.992736"/>
     <use style="fill:#0000ff;stroke:#0000ff;stroke-width:0.5;" x="440.728257963" xlink:href="#m76a7ce5b4a" y="212.5578048"/>
     <use style="fill:#0000ff;stroke:#0000ff;stroke-width:0.5;" x="444.653174958" xlink:href="#m76a7ce5b4a" y="201.4792944"/>
     <use style="fill:#0000ff;stroke:#0000ff;stroke-width:0.5;" x="448.582218585" xlink:href="#m76a7ce5b4a" y="194.031672"/>
     <use style="fill:#0000ff;stroke:#0000ff;stroke-width:0.5;" x="451.81614945" xlink:href="#m76a7ce5b4a" y="182.1111168"/>
     <use style="fill:#0000ff;stroke:#0000ff;stroke-width:0.5;" x="455.738993349" xlink:href="#m76a7ce5b4a" y="174.7254432"/>
     <use style="fill:#0000ff;stroke:#0000ff;stroke-width:0.5;" x="459.662619549" xlink:href="#m76a7ce5b4a" y="166.0835856"/>
     <use style="fill:#0000ff;stroke:#0000ff;stroke-width:0.5;" x="463.590157249" xlink:href="#m76a7ce5b4a" y="153.3817872"/>
    </g>
   </g>
   <g id="line2d_2">
    <path clip-path="url(#p8092a36277)" d="
M72 345.687
L81.1102 346.137
L90.2204 341.599
L99.3306 332.249
L108.441 318.45
L117.551 300.737
L126.661 279.797
L135.771 256.444
L144.882 231.582
L153.992 206.178
L163.102 181.215
L172.212 157.664
L181.322 136.437
L190.433 118.359
L199.543 104.13
L208.653 94.3032
L217.763 89.2595
L226.873 89.1946
L235.984 94.1111
L245.094 103.818
L254.204 117.939
L263.314 135.926
L272.424 157.081
L281.535 180.584
L290.645 205.521
L299.755 230.927
L308.865 255.815
L317.976 279.219
L327.086 300.232
L336.196 318.038
L345.306 331.946
L354.416 341.417
L363.527 346.082
L372.637 345.762
L381.747 340.469
L390.857 330.407
L399.967 315.968
L409.078 297.711
L418.188 276.345
L427.298 252.699
L436.408 227.69
L445.518 202.289
L454.629 177.482
L463.739 154.23
L472.849 133.436
L481.959 115.907
L491.069 102.323
L500.18 93.2103
L509.29 88.9235
L518.4 89.6286" style="fill:none;stroke:#008000;stroke-linecap:square;"/>
   </g>
   <g id="matplotlib.axis_1">
    <g id="xtick_1">
     <g id="line2d_3">
      <defs>
       <path d="
M0 0
L0 -4" id="m93b0483c22" style="stroke:#000000;stroke-width:0.5;"/>
      </defs>
      <g>
       <use style="stroke:#000000;stroke-width:0.5;" x="72.0" xlink:href="#m93b0483c22" y="387.18"/>
      </g>
     </g>
     <g id="line2d_4">
      <defs>
       <path d="
M0 0
L0 4" id="m741efc42ff" style="stroke:#000000;stroke-width:0.5;"/>
      </defs>
      <g>
       <use style="stroke:#000000;stroke-width:0.5;" x="72.0" xlink:href="#m741efc42ff" y="43.02"/>
      </g>
     </g>
     <g id="text_1">
      <!-- 0 -->
      <defs>
       <path d="
M31.7812 66.4062
Q24.1719 66.4062 20.3281 58.9062
Q16.5 51.4219 16.5 36.375
Q16.5 21.3906 20.3281 13.8906
Q24.1719 6.39062 31.7812 6.39062
Q39.4531 6.39062 43.2812 13.8906
Q47.125 21.3906 47.125 36.375
Q47.125 51.4219 43.2812 58.9062
Q39.4531 66.4062 31.7812 66.4062
M31.7812 74.2188
Q44.0469 74.2188 50.5156 64.5156
Q56.9844 54.8281 56.9844 36.375
Q56.9844 17.9688 50.5156 8.26562
Q44.0469 -1.42188 31.7812 -1.42188
Q19.5312 -1.42188 13.0625 8.26562
Q6.59375 17.9688 6.59375 36.375
Q6.59375 54.8281 13.0625 64.5156
Q19.5312 74.2188 31.7812 74.2188" id="BitstreamVeraSans-Roman-30"/>
      </defs>
      <g transform="translate(68.9765625 400.298125)scale(0.12 -0.12)">
       <use xlink:href="#BitstreamVeraSans-Roman-30"/>
      </g>
     </g>
    </g>
    <g id="xtick_2">
     <g id="line2d_5">
      <g>
       <use style="stroke:#000000;stroke-width:0.5;" x="161.28" xlink:href="#m93b0483c22" y="387.18"/>
      </g>
     </g>
     <g id="line2d_6">
      <g>
       <use style="stroke:#000000;stroke-width:0.5;" x="161.28" xlink:href="#m741efc42ff" y="43.02"/>
      </g>
     </g>
     <g id="text_2">
      <!-- 50 -->
      <defs>
       <path d="
M10.7969 72.9062
L49.5156 72.9062
L49.5156 64.5938
L19.8281 64.5938
L19.8281 46.7344
Q21.9688 47.4688 24.1094 47.8281
Q26.2656 48.1875 28.4219 48.1875
Q40.625 48.1875 47.75 41.5
Q54.8906 34.8125 54.8906 23.3906
Q54.8906 11.625 47.5625 5.09375
Q40.2344 -1.42188 26.9062 -1.42188
Q22.3125 -1.42188 17.5469 -0.640625
Q12.7969 0.140625 7.71875 1.70312
L7.71875 11.625
Q12.1094 9.23438 16.7969 8.0625
Q21.4844 6.89062 26.7031 6.89062
Q35.1562 6.89062 40.0781 11.3281
Q45.0156 15.7656 45.0156 23.3906
Q45.0156 31 40.0781 35.4375
Q35.1562 39.8906 26.7031 39.8906
Q22.75 39.8906 18.8125 39.0156
Q14.8906 38.1406 10.7969 36.2812
z
" id="BitstreamVeraSans-Roman-35"/>
      </defs>
      <g transform="translate(154.5065625 400.298125)scale(0.12 -0.12)">
       <use xlink:href="#BitstreamVeraSans-Roman-35"/>
       <use x="63.623046875" xlink:href="#BitstreamVeraSans-Roman-30"/>
      </g>
     </g>
    </g>
    <g id="xtick_3">
     <g id="line2d_7">
      <g>
       <use style="stroke:#000000;stroke-width:0.5;" x="250.56" xlink:href="#m93b0483c22" y="387.18"/>
      </g>
     </g>
     <g id="line2d_8">
      <g>
       <use style="stroke:#000000;stroke-width:0.5;" x="250.56" xlink:href="#m741efc42ff" y="43.02"/>
      </g>
     </g>
     <g id="text_3">
      <!-- 100 -->
      <defs>
       <path d="
M12.4062 8.29688
L28.5156 8.29688
L28.5156 63.9219
L10.9844 60.4062
L10.9844 69.3906
L28.4219 72.9062
L38.2812 72.9062
L38.2812 8.29688
L54.3906 8.29688
L54.3906 0
L12.4062 0
z
" id="BitstreamVeraSans-Roman-31"/>
      </defs>
      <g transform="translate(240.165 400.298125)scale(0.12 -0.12)">
       <use xlink:href="#BitstreamVeraSans-Roman-31"/>
       <use x="63.623046875" xlink:href="#BitstreamVeraSans-Roman-30"/>
       <use x="127.24609375" xlink:href="#BitstreamVeraSans-Roman-30"/>
      </g>
     </g>
    </g>
    <g id="xtick_4">
     <g id="line2d_9">
      <g>
       <use style="stroke:#000000;stroke-width:0.5;" x="339.84" xlink:href="#m93b0483c22" y="387.18"/>
      </g>
     </g>
     <g id="line2d_10">
      <g>
       <use style="stroke:#000000;stroke-width:0.5;" x="339.84" xlink:href="#m741efc42ff" y="43.02"/>
      </g>
     </g>
     <g id="text_4">
      <!-- 150 -->
      <g transform="translate(329.445 400.298125)scale(0.12 -0.12)">
       <use xlink:href="#BitstreamVeraSans-Roman-31"/>
       <use x="63.623046875" xlink:href="#BitstreamVeraSans-Roman-35"/>
       <use x="127.24609375" xlink:href="#BitstreamVeraSans-Roman-30"/>
      </g>
     </g>
    </g>
    <g id="xtick_5">
     <g id="line2d_11">
      <g>
       <use style="stroke:#000000;stroke-width:0.5;" x="429.12" xlink:href="#m93b0483c22" y="387.18"/>
      </g>
     </g>
     <g id="line2d_12">
      <g>
       <use style="stroke:#000000;stroke-width:0.5;" x="429.12" xlink:href="#m741efc42ff" y="43.02"/>
      </g>
     </g>
     <g id="text_5">
      <!-- 200 -->
      <defs>
       <path d="
M19.1875 8.29688
L53.6094 8.29688
L53.6094 0
L7.32812 0
L7.32812 8.29688
Q12.9375 14.1094 22.625 23.8906
Q32.3281 33.6875 34.8125 36.5312
Q39.5469 41.8438 41.4219 45.5312
Q43.3125 49.2188 43.3125 52.7812
Q43.3125 58.5938 39.2344 62.25
Q35.1562 65.9219 28.6094 65.9219
Q23.9688 65.9219 18.8125 64.3125
Q13.6719 62.7031 7.8125 59.4219
L7.8125 69.3906
Q13.7656 71.7812 18.9375 73
Q24.125 74.2188 28.4219 74.2188
Q39.75 74.2188 46.4844 68.5469
Q53.2188 62.8906 53.2188 53.4219
Q53.2188 48.9219 51.5312 44.8906
Q49.8594 40.875 45.4062 35.4062
Q44.1875 33.9844 37.6406 27.2188
Q31.1094 20.4531 19.1875 8.29688" id="BitstreamVeraSans-Roman-32"/>
      </defs>
      <g transform="translate(418.505625 400.298125)scale(0.12 -0.12)">
       <use xlink:href="#BitstreamVeraSans-Roman-32"/>
       <use x="63.623046875" xlink:href="#BitstreamVeraSans-Roman-30"/>
       <use x="127.24609375" xlink:href="#BitstreamVeraSans-Roman-30"/>
      </g>
     </g>
    </g>
    <g id="xtick_6">
     <g id="line2d_13">
      <g>
       <use style="stroke:#000000;stroke-width:0.5;" x="518.4" xlink:href="#m93b0483c22" y="387.18"/>
      </g>
     </g>
     <g id="line2d_14">
      <g>
       <use style="stroke:#000000;stroke-width:0.5;" x="518.4" xlink:href="#m741efc42ff" y="43.02"/>
      </g>
     </g>
     <g id="text_6">
      <!-- 250 -->
      <g transform="translate(507.785625 400.298125)scale(0.12 -0.12)">
       <use xlink:href="#BitstreamVeraSans-Roman-32"/>
       <use x="63.623046875" xlink:href="#BitstreamVeraSans-Roman-35"/>
       <use x="127.24609375" xlink:href="#BitstreamVeraSans-Roman-30"/>
      </g>
     </g>
    </g>
    <g id="text_7">
     <!-- Mod Current(uA) -->
     <defs>
      <path id="BitstreamVeraSans-Roman-20"/>
      <path d="
M9.8125 72.9062
L24.5156 72.9062
L43.1094 23.2969
L61.8125 72.9062
L76.5156 72.9062
L76.5156 0
L66.8906 0
L66.8906 64.0156
L48.0938 14.0156
L38.1875 14.0156
L19.3906 64.0156
L19.3906 0
L9.8125 0
z
" id="BitstreamVeraSans-Roman-4d"/>
      <path d="
M54.8906 33.0156
L54.8906 0
L45.9062 0
L45.9062 32.7188
Q45.9062 40.4844 42.875 44.3281
Q39.8438 48.1875 33.7969 48.1875
Q26.5156 48.1875 22.3125 43.5469
Q18.1094 38.9219 18.1094 30.9062
L18.1094 0
L9.07812 0
L9.07812 54.6875
L18.1094 54.6875
L18.1094 46.1875
Q21.3438 51.125 25.7031 53.5625
Q30.0781 56 35.7969 56
Q45.2188 56 50.0469 50.1719
Q54.8906 44.3438 54.8906 33.0156" id="BitstreamVeraSans-Roman-6e"/>
      <path d="
M31 75.875
Q24.4688 64.6562 21.2812 53.6562
Q18.1094 42.6719 18.1094 31.3906
Q18.1094 20.125 21.3125 9.0625
Q24.5156 -2 31 -13.1875
L23.1875 -13.1875
Q15.875 -1.70312 12.2344 9.375
Q8.59375 20.4531 8.59375 31.3906
Q8.59375 42.2812 12.2031 53.3125
Q15.8281 64.3594 23.1875 75.875
z
" id="BitstreamVeraSans-Roman-28"/>
      <path d="
M30.6094 48.3906
Q23.3906 48.3906 19.1875 42.75
Q14.9844 37.1094 14.9844 27.2969
Q14.9844 17.4844 19.1562 11.8438
Q23.3438 6.20312 30.6094 6.20312
Q37.7969 6.20312 41.9844 11.8594
Q46.1875 17.5312 46.1875 27.2969
Q46.1875 37.0156 41.9844 42.7031
Q37.7969 48.3906 30.6094 48.3906
M30.6094 56
Q42.3281 56 49.0156 48.375
Q55.7188 40.7656 55.7188 27.2969
Q55.7188 13.875 49.0156 6.21875
Q42.3281 -1.42188 30.6094 -1.42188
Q18.8438 -1.42188 12.1719 6.21875
Q5.51562 13.875 5.51562 27.2969
Q5.51562 40.7656 12.1719 48.375
Q18.8438 56 30.6094 56" id="BitstreamVeraSans-Roman-6f"/>
      <path d="
M8.01562 75.875
L15.8281 75.875
Q23.1406 64.3594 26.7812 53.3125
Q30.4219 42.2812 30.4219 31.3906
Q30.4219 20.4531 26.7812 9.375
Q23.1406 -1.70312 15.8281 -13.1875
L8.01562 -13.1875
Q14.5 -2 17.7031 9.0625
Q20.9062 20.125 20.9062 31.3906
Q20.9062 42.6719 17.7031 53.6562
Q14.5 64.6562 8.01562 75.875" id="BitstreamVeraSans-Roman-29"/>
      <path d="
M64.4062 67.2812
L64.4062 56.8906
Q59.4219 61.5312 53.7812 63.8125
Q48.1406 66.1094 41.7969 66.1094
Q29.2969 66.1094 22.6562 58.4688
Q16.0156 50.8281 16.0156 36.375
Q16.0156 21.9688 22.6562 14.3281
Q29.2969 6.6875 41.7969 6.6875
Q48.1406 6.6875 53.7812 8.98438
Q59.4219 11.2812 64.4062 15.9219
L64.4062 5.60938
Q59.2344 2.09375 53.4375 0.328125
Q47.6562 -1.42188 41.2188 -1.42188
Q24.6562 -1.42188 15.125 8.70312
Q5.60938 18.8438 5.60938 36.375
Q5.60938 53.9531 15.125 64.0781
Q24.6562 74.2188 41.2188 74.2188
Q47.75 74.2188 53.5312 72.4844
Q59.3281 70.75 64.4062 67.2812" id="BitstreamVeraSans-Roman-43"/>
      <path d="
M34.1875 63.1875
L20.7969 26.9062
L47.6094 26.9062
z

M28.6094 72.9062
L39.7969 72.9062
L67.5781 0
L57.3281 0
L50.6875 18.7031
L17.8281 18.7031
L11.1875 0
L0.78125 0
z
" id="BitstreamVeraSans-Roman-41"/>
      <path d="
M56.2031 29.5938
L56.2031 25.2031
L14.8906 25.2031
Q15.4844 15.9219 20.4844 11.0625
Q25.4844 6.20312 34.4219 6.20312
Q39.5938 6.20312 44.4531 7.46875
Q49.3125 8.73438 54.1094 11.2812
L54.1094 2.78125
Q49.2656 0.734375 44.1875 -0.34375
Q39.1094 -1.42188 33.8906 -1.42188
Q20.7969 -1.42188 13.1562 6.1875
Q5.51562 13.8125 5.51562 26.8125
Q5.51562 40.2344 12.7656 48.1094
Q20.0156 56 32.3281 56
Q43.3594 56 49.7812 48.8906
Q56.2031 41.7969 56.2031 29.5938
M47.2188 32.2344
Q47.125 39.5938 43.0938 43.9844
Q39.0625 48.3906 32.4219 48.3906
Q24.9062 48.3906 20.3906 44.1406
Q15.875 39.8906 15.1875 32.1719
z
" id="BitstreamVeraSans-Roman-65"/>
      <path d="
M45.4062 46.3906
L45.4062 75.9844
L54.3906 75.9844
L54.3906 0
L45.4062 0
L45.4062 8.20312
Q42.5781 3.32812 38.25 0.953125
Q33.9375 -1.42188 27.875 -1.42188
Q17.9688 -1.42188 11.7344 6.48438
Q5.51562 14.4062 5.51562 27.2969
Q5.51562 40.1875 11.7344 48.0938
Q17.9688 56 27.875 56
Q33.9375 56 38.25 53.625
Q42.5781 51.2656 45.4062 46.3906
M14.7969 27.2969
Q14.7969 17.3906 18.875 11.75
Q22.9531 6.10938 30.0781 6.10938
Q37.2031 6.10938 41.2969 11.75
Q45.4062 17.3906 45.4062 27.2969
Q45.4062 37.2031 41.2969 42.8438
Q37.2031 48.4844 30.0781 48.4844
Q22.9531 48.4844 18.875 42.8438
Q14.7969 37.2031 14.7969 27.2969" id="BitstreamVeraSans-Roman-64"/>
      <path d="
M18.3125 70.2188
L18.3125 54.6875
L36.8125 54.6875
L36.8125 47.7031
L18.3125 47.7031
L18.3125 18.0156
Q18.3125 11.3281 20.1406 9.42188
Q21.9688 7.51562 27.5938 7.51562
L36.8125 7.51562
L36.8125 0
L27.5938 0
Q17.1875 0 13.2344 3.875
Q9.28125 7.76562 9.28125 18.0156
L9.28125 47.7031
L2.6875 47.7031
L2.6875 54.6875
L9.28125 54.6875
L9.28125 70.2188
z
" id="BitstreamVeraSans-Roman-74"/>
      <path d="
M8.5 21.5781
L8.5 54.6875
L17.4844 54.6875
L17.4844 21.9219
Q17.4844 14.1562 20.5 10.2656
Q23.5312 6.39062 29.5938 6.39062
Q36.8594 6.39062 41.0781 11.0312
Q45.3125 15.6719 45.3125 23.6875
L45.3125 54.6875
L54.2969 54.6875
L54.2969 0
L45.3125 0
L45.3125 8.40625
Q42.0469 3.42188 37.7188 1
Q33.4062 -1.42188 27.6875 -1.42188
Q18.2656 -1.42188 13.375 4.4375
Q8.5 10.2969 8.5 21.5781" id="BitstreamVeraSans-Roman-75"/>
      <path d="
M41.1094 46.2969
Q39.5938 47.1719 37.8125 47.5781
Q36.0312 48 33.8906 48
Q26.2656 48 22.1875 43.0469
Q18.1094 38.0938 18.1094 28.8125
L18.1094 0
L9.07812 0
L9.07812 54.6875
L18.1094 54.6875
L18.1094 46.1875
Q20.9531 51.1719 25.4844 53.5781
Q30.0312 56 36.5312 56
Q37.4531 56 38.5781 55.875
Q39.7031 55.7656 41.0625 55.5156
z
" id="BitstreamVeraSans-Roman-72"/>
     </defs>
     <g transform="translate(246.0309375 416.911875)scale(0.12 -0.12)">
      <use xlink:href="#BitstreamVeraSans-Roman-4d"/>
      <use x="86.279296875" xlink:href="#BitstreamVeraSans-Roman-6f"/>
      <use x="147.4609375" xlink:href="#BitstreamVeraSans-Roman-64"/>
      <use x="210.9375" xlink:href="#BitstreamVeraSans-Roman-20"/>
      <use x="242.724609375" xlink:href="#BitstreamVeraSans-Roman-43"/>
      <use x="312.548828125" xlink:href="#BitstreamVeraSans-Roman-75"/>
      <use x="375.927734375" xlink:href="#BitstreamVeraSans-Roman-72"/>
      <use x="415.291015625" xlink:href="#BitstreamVeraSans-Roman-72"/>
      <use x="454.154296875" xlink:href="#BitstreamVeraSans-Roman-65"/>
      <use x="515.677734375" xlink:href="#BitstreamVeraSans-Roman-6e"/>
      <use x="579.056640625" xlink:href="#BitstreamVeraSans-Roman-74"/>
      <use x="618.265625" xlink:href="#BitstreamVeraSans-Roman-28"/>
      <use x="657.279296875" xlink:href="#BitstreamVeraSans-Roman-75"/>
      <use x="720.658203125" xlink:href="#BitstreamVeraSans-Roman-41"/>
      <use x="789.06640625" xlink:href="#BitstreamVeraSans-Roman-29"/>
     </g>
    </g>
   </g>
   <g id="matplotlib.axis_2">
    <g id="ytick_1">
     <g id="line2d_15">
      <defs>
       <path d="
M0 0
L4 0" id="m728421d6d4" style="stroke:#000000;stroke-width:0.5;"/>
      </defs>
      <g>
       <use style="stroke:#000000;stroke-width:0.5;" x="72.0" xlink:href="#m728421d6d4" y="387.18"/>
      </g>
     </g>
     <g id="line2d_16">
      <defs>
       <path d="
M0 0
L-4 0" id="mcb0005524f" style="stroke:#000000;stroke-width:0.5;"/>
      </defs>
      <g>
       <use style="stroke:#000000;stroke-width:0.5;" x="518.4" xlink:href="#mcb0005524f" y="387.18"/>
      </g>
     </g>
     <g id="text_8">
      <!-- 43.0 -->
      <defs>
       <path d="
M40.5781 39.3125
Q47.6562 37.7969 51.625 33
Q55.6094 28.2188 55.6094 21.1875
Q55.6094 10.4062 48.1875 4.48438
Q40.7656 -1.42188 27.0938 -1.42188
Q22.5156 -1.42188 17.6562 -0.515625
Q12.7969 0.390625 7.625 2.20312
L7.625 11.7188
Q11.7188 9.32812 16.5938 8.10938
Q21.4844 6.89062 26.8125 6.89062
Q36.0781 6.89062 40.9375 10.5469
Q45.7969 14.2031 45.7969 21.1875
Q45.7969 27.6406 41.2812 31.2656
Q36.7656 34.9062 28.7188 34.9062
L20.2188 34.9062
L20.2188 43.0156
L29.1094 43.0156
Q36.375 43.0156 40.2344 45.9219
Q44.0938 48.8281 44.0938 54.2969
Q44.0938 59.9062 40.1094 62.9062
Q36.1406 65.9219 28.7188 65.9219
Q24.6562 65.9219 20.0156 65.0312
Q15.375 64.1562 9.8125 62.3125
L9.8125 71.0938
Q15.4375 72.6562 20.3438 73.4375
Q25.25 74.2188 29.5938 74.2188
Q40.8281 74.2188 47.3594 69.1094
Q53.9062 64.0156 53.9062 55.3281
Q53.9062 49.2656 50.4375 45.0938
Q46.9688 40.9219 40.5781 39.3125" id="BitstreamVeraSans-Roman-33"/>
       <path d="
M10.6875 12.4062
L21 12.4062
L21 0
L10.6875 0
z
" id="BitstreamVeraSans-Roman-2e"/>
       <path d="
M37.7969 64.3125
L12.8906 25.3906
L37.7969 25.3906
z

M35.2031 72.9062
L47.6094 72.9062
L47.6094 25.3906
L58.0156 25.3906
L58.0156 17.1875
L47.6094 17.1875
L47.6094 0
L37.7969 0
L37.7969 17.1875
L4.89062 17.1875
L4.89062 26.7031
z
" id="BitstreamVeraSans-Roman-34"/>
      </defs>
      <g transform="translate(42.665 390.49125)scale(0.12 -0.12)">
       <use xlink:href="#BitstreamVeraSans-Roman-34"/>
       <use x="63.623046875" xlink:href="#BitstreamVeraSans-Roman-33"/>
       <use x="127.24609375" xlink:href="#BitstreamVeraSans-Roman-2e"/>
       <use x="159.033203125" xlink:href="#BitstreamVeraSans-Roman-30"/>
      </g>
     </g>
    </g>
    <g id="ytick_2">
     <g id="line2d_17">
      <g>
       <use style="stroke:#000000;stroke-width:0.5;" x="72.0" xlink:href="#m728421d6d4" y="329.82"/>
      </g>
     </g>
     <g id="line2d_18">
      <g>
       <use style="stroke:#000000;stroke-width:0.5;" x="518.4" xlink:href="#mcb0005524f" y="329.82"/>
      </g>
     </g>
     <g id="text_9">
      <!-- 43.5 -->
      <g transform="translate(42.91625 333.13125)scale(0.12 -0.12)">
       <use xlink:href="#BitstreamVeraSans-Roman-34"/>
       <use x="63.623046875" xlink:href="#BitstreamVeraSans-Roman-33"/>
       <use x="127.24609375" xlink:href="#BitstreamVeraSans-Roman-2e"/>
       <use x="159.033203125" xlink:href="#BitstreamVeraSans-Roman-35"/>
      </g>
     </g>
    </g>
    <g id="ytick_3">
     <g id="line2d_19">
      <g>
       <use style="stroke:#000000;stroke-width:0.5;" x="72.0" xlink:href="#m728421d6d4" y="272.46"/>
      </g>
     </g>
     <g id="line2d_20">
      <g>
       <use style="stroke:#000000;stroke-width:0.5;" x="518.4" xlink:href="#mcb0005524f" y="272.46"/>
      </g>
     </g>
     <g id="text_10">
      <!-- 44.0 -->
      <g transform="translate(42.665 275.77125)scale(0.12 -0.12)">
       <use xlink:href="#BitstreamVeraSans-Roman-34"/>
       <use x="63.623046875" xlink:href="#BitstreamVeraSans-Roman-34"/>
       <use x="127.24609375" xlink:href="#BitstreamVeraSans-Roman-2e"/>
       <use x="159.033203125" xlink:href="#BitstreamVeraSans-Roman-30"/>
      </g>
     </g>
    </g>
    <g id="ytick_4">
     <g id="line2d_21">
      <g>
       <use style="stroke:#000000;stroke-width:0.5;" x="72.0" xlink:href="#m728421d6d4" y="215.1"/>
      </g>
     </g>
     <g id="line2d_22">
      <g>
       <use style="stroke:#000000;stroke-width:0.5;" x="518.4" xlink:href="#mcb0005524f" y="215.1"/>
      </g>
     </g>
     <g id="text_11">
      <!-- 44.5 -->
      <g transform="translate(42.91625 218.41125)scale(0.12 -0.12)">
       <use xlink:href="#BitstreamVeraSans-Roman-34"/>
       <use x="63.623046875" xlink:href="#BitstreamVeraSans-Roman-34"/>
       <use x="127.24609375" xlink:href="#BitstreamVeraSans-Roman-2e"/>
       <use x="159.033203125" xlink:href="#BitstreamVeraSans-Roman-35"/>
      </g>
     </g>
    </g>
    <g id="ytick_5">
     <g id="line2d_23">
      <g>
       <use style="stroke:#000000;stroke-width:0.5;" x="72.0" xlink:href="#m728421d6d4" y="157.74"/>
      </g>
     </g>
     <g id="line2d_24">
      <g>
       <use style="stroke:#000000;stroke-width:0.5;" x="518.4" xlink:href="#mcb0005524f" y="157.74"/>
      </g>
     </g>
     <g id="text_12">
      <!-- 45.0 -->
      <g transform="translate(42.665 161.05125)scale(0.12 -0.12)">
       <use xlink:href="#BitstreamVeraSans-Roman-34"/>
       <use x="63.623046875" xlink:href="#BitstreamVeraSans-Roman-35"/>
       <use x="127.24609375" xlink:href="#BitstreamVeraSans-Roman-2e"/>
       <use x="159.033203125" xlink:href="#BitstreamVeraSans-Roman-30"/>
      </g>
     </g>
    </g>
    <g id="ytick_6">
     <g id="line2d_25">
      <g>
       <use style="stroke:#000000;stroke-width:0.5;" x="72.0" xlink:href="#m728421d6d4" y="100.38"/>
      </g>
     </g>
     <g id="line2d_26">
      <g>
       <use style="stroke:#000000;stroke-width:0.5;" x="518.4" xlink:href="#mcb0005524f" y="100.38"/>
      </g>
     </g>
     <g id="text_13">
      <!-- 45.5 -->
      <g transform="translate(42.91625 103.69125)scale(0.12 -0.12)">
       <use xlink:href="#BitstreamVeraSans-Roman-34"/>
       <use x="63.623046875" xlink:href="#BitstreamVeraSans-Roman-35"/>
       <use x="127.24609375" xlink:href="#BitstreamVeraSans-Roman-2e"/>
       <use x="159.033203125" xlink:href="#BitstreamVeraSans-Roman-35"/>
      </g>
     </g>
    </g>
    <g id="ytick_7">
     <g id="line2d_27">
      <g>
       <use style="stroke:#000000;stroke-width:0.5;" x="72.0" xlink:href="#m728421d6d4" y="43.02"/>
      </g>
     </g>
     <g id="line2d_28">
      <g>
       <use style="stroke:#000000;stroke-width:0.5;" x="518.4" xlink:href="#mcb0005524f" y="43.02"/>
      </g>
     </g>
     <g id="text_14">
      <!-- 46.0 -->
      <defs>
       <path d="
M33.0156 40.375
Q26.375 40.375 22.4844 35.8281
Q18.6094 31.2969 18.6094 23.3906
Q18.6094 15.5312 22.4844 10.9531
Q26.375 6.39062 33.0156 6.39062
Q39.6562 6.39062 43.5312 10.9531
Q47.4062 15.5312 47.4062 23.3906
Q47.4062 31.2969 43.5312 35.8281
Q39.6562 40.375 33.0156 40.375
M52.5938 71.2969
L52.5938 62.3125
Q48.875 64.0625 45.0938 64.9844
Q41.3125 65.9219 37.5938 65.9219
Q27.8281 65.9219 22.6719 59.3281
Q17.5312 52.7344 16.7969 39.4062
Q19.6719 43.6562 24.0156 45.9219
Q28.375 48.1875 33.5938 48.1875
Q44.5781 48.1875 50.9531 41.5156
Q57.3281 34.8594 57.3281 23.3906
Q57.3281 12.1562 50.6875 5.35938
Q44.0469 -1.42188 33.0156 -1.42188
Q20.3594 -1.42188 13.6719 8.26562
Q6.98438 17.9688 6.98438 36.375
Q6.98438 53.6562 15.1875 63.9375
Q23.3906 74.2188 37.2031 74.2188
Q40.9219 74.2188 44.7031 73.4844
Q48.4844 72.75 52.5938 71.2969" id="BitstreamVeraSans-Roman-36"/>
      </defs>
      <g transform="translate(42.665 46.33125)scale(0.12 -0.12)">
       <use xlink:href="#BitstreamVeraSans-Roman-34"/>
       <use x="63.623046875" xlink:href="#BitstreamVeraSans-Roman-36"/>
       <use x="127.24609375" xlink:href="#BitstreamVeraSans-Roman-2e"/>
       <use x="159.033203125" xlink:href="#BitstreamVeraSans-Roman-30"/>
      </g>
     </g>
    </g>
    <g id="text_15">
     <!-- SQUID Voltage(uV) -->
     <defs>
      <path d="
M9.42188 75.9844
L18.4062 75.9844
L18.4062 0
L9.42188 0
z
" id="BitstreamVeraSans-Roman-6c"/>
      <path d="
M39.4062 66.2188
Q28.6562 66.2188 22.3281 58.2031
Q16.0156 50.2031 16.0156 36.375
Q16.0156 22.6094 22.3281 14.5938
Q28.6562 6.59375 39.4062 6.59375
Q50.1406 6.59375 56.4219 14.5938
Q62.7031 22.6094 62.7031 36.375
Q62.7031 50.2031 56.4219 58.2031
Q50.1406 66.2188 39.4062 66.2188
M53.2188 1.3125
L66.2188 -12.8906
L54.2969 -12.8906
L43.5 -1.21875
Q41.8906 -1.3125 41.0312 -1.35938
Q40.1875 -1.42188 39.4062 -1.42188
Q24.0312 -1.42188 14.8125 8.85938
Q5.60938 19.1406 5.60938 36.375
Q5.60938 53.6562 14.8125 63.9375
Q24.0312 74.2188 39.4062 74.2188
Q54.7344 74.2188 63.9062 63.9375
Q73.0938 53.6562 73.0938 36.375
Q73.0938 23.6875 67.9844 14.6406
Q62.8906 5.60938 53.2188 1.3125" id="BitstreamVeraSans-Roman-51"/>
      <path d="
M19.6719 64.7969
L19.6719 8.10938
L31.5938 8.10938
Q46.6875 8.10938 53.6875 14.9375
Q60.6875 21.7812 60.6875 36.5312
Q60.6875 51.1719 53.6875 57.9844
Q46.6875 64.7969 31.5938 64.7969
z

M9.8125 72.9062
L30.0781 72.9062
Q51.2656 72.9062 61.1719 64.0938
Q71.0938 55.2812 71.0938 36.5312
Q71.0938 17.6719 61.125 8.82812
Q51.1719 0 30.0781 0
L9.8125 0
z
" id="BitstreamVeraSans-Roman-44"/>
      <path d="
M8.6875 72.9062
L18.6094 72.9062
L18.6094 28.6094
Q18.6094 16.8906 22.8438 11.7344
Q27.0938 6.59375 36.625 6.59375
Q46.0938 6.59375 50.3438 11.7344
Q54.5938 16.8906 54.5938 28.6094
L54.5938 72.9062
L64.5 72.9062
L64.5 27.3906
Q64.5 13.1406 57.4375 5.85938
Q50.3906 -1.42188 36.625 -1.42188
Q22.7969 -1.42188 15.7344 5.85938
Q8.6875 13.1406 8.6875 27.3906
z
" id="BitstreamVeraSans-Roman-55"/>
      <path d="
M28.6094 0
L0.78125 72.9062
L11.0781 72.9062
L34.1875 11.5312
L57.3281 72.9062
L67.5781 72.9062
L39.7969 0
z
" id="BitstreamVeraSans-Roman-56"/>
      <path d="
M9.8125 72.9062
L19.6719 72.9062
L19.6719 0
L9.8125 0
z
" id="BitstreamVeraSans-Roman-49"/>
      <path d="
M34.2812 27.4844
Q23.3906 27.4844 19.1875 25
Q14.9844 22.5156 14.9844 16.5
Q14.9844 11.7188 18.1406 8.90625
Q21.2969 6.10938 26.7031 6.10938
Q34.1875 6.10938 38.7031 11.4062
Q43.2188 16.7031 43.2188 25.4844
L43.2188 27.4844
z

M52.2031 31.2031
L52.2031 0
L43.2188 0
L43.2188 8.29688
Q40.1406 3.32812 35.5469 0.953125
Q30.9531 -1.42188 24.3125 -1.42188
Q15.9219 -1.42188 10.9531 3.29688
Q6 8.01562 6 15.9219
Q6 25.1406 12.1719 29.8281
Q18.3594 34.5156 30.6094 34.5156
L43.2188 34.5156
L43.2188 35.4062
Q43.2188 41.6094 39.1406 45
Q35.0625 48.3906 27.6875 48.3906
Q23 48.3906 18.5469 47.2656
Q14.1094 46.1406 10.0156 43.8906
L10.0156 52.2031
Q14.9375 54.1094 19.5781 55.0469
Q24.2188 56 28.6094 56
Q40.4844 56 46.3438 49.8438
Q52.2031 43.7031 52.2031 31.2031" id="BitstreamVeraSans-Roman-61"/>
      <path d="
M45.4062 27.9844
Q45.4062 37.75 41.375 43.1094
Q37.3594 48.4844 30.0781 48.4844
Q22.8594 48.4844 18.8281 43.1094
Q14.7969 37.75 14.7969 27.9844
Q14.7969 18.2656 18.8281 12.8906
Q22.8594 7.51562 30.0781 7.51562
Q37.3594 7.51562 41.375 12.8906
Q45.4062 18.2656 45.4062 27.9844
M54.3906 6.78125
Q54.3906 -7.17188 48.1875 -13.9844
Q42 -20.7969 29.2031 -20.7969
Q24.4688 -20.7969 20.2656 -20.0938
Q16.0625 -19.3906 12.1094 -17.9219
L12.1094 -9.1875
Q16.0625 -11.3281 19.9219 -12.3438
Q23.7812 -13.375 27.7812 -13.375
Q36.625 -13.375 41.0156 -8.76562
Q45.4062 -4.15625 45.4062 5.17188
L45.4062 9.625
Q42.625 4.78125 38.2812 2.39062
Q33.9375 0 27.875 0
Q17.8281 0 11.6719 7.65625
Q5.51562 15.3281 5.51562 27.9844
Q5.51562 40.6719 11.6719 48.3281
Q17.8281 56 27.875 56
Q33.9375 56 38.2812 53.6094
Q42.625 51.2188 45.4062 46.3906
L45.4062 54.6875
L54.3906 54.6875
z
" id="BitstreamVeraSans-Roman-67"/>
      <path d="
M53.5156 70.5156
L53.5156 60.8906
Q47.9062 63.5781 42.9219 64.8906
Q37.9375 66.2188 33.2969 66.2188
Q25.25 66.2188 20.875 63.0938
Q16.5 59.9688 16.5 54.2031
Q16.5 49.3594 19.4062 46.8906
Q22.3125 44.4375 30.4219 42.9219
L36.375 41.7031
Q47.4062 39.5938 52.6562 34.2969
Q57.9062 29 57.9062 20.125
Q57.9062 9.51562 50.7969 4.04688
Q43.7031 -1.42188 29.9844 -1.42188
Q24.8125 -1.42188 18.9688 -0.25
Q13.1406 0.921875 6.89062 3.21875
L6.89062 13.375
Q12.8906 10.0156 18.6562 8.29688
Q24.4219 6.59375 29.9844 6.59375
Q38.4219 6.59375 43.0156 9.90625
Q47.6094 13.2344 47.6094 19.3906
Q47.6094 24.75 44.3125 27.7812
Q41.0156 30.8125 33.5 32.3281
L27.4844 33.5
Q16.4531 35.6875 11.5156 40.375
Q6.59375 45.0625 6.59375 53.4219
Q6.59375 63.0938 13.4062 68.6562
Q20.2188 74.2188 32.1719 74.2188
Q37.3125 74.2188 42.625 73.2812
Q47.9531 72.3594 53.5156 70.5156" id="BitstreamVeraSans-Roman-53"/>
     </defs>
     <g transform="translate(35.169375 270.9009375)rotate(-90.0)scale(0.12 -0.12)">
      <use xlink:href="#BitstreamVeraSans-Roman-53"/>
      <use x="63.4765625" xlink:href="#BitstreamVeraSans-Roman-51"/>
      <use x="142.1875" xlink:href="#BitstreamVeraSans-Roman-55"/>
      <use x="215.380859375" xlink:href="#BitstreamVeraSans-Roman-49"/>
      <use x="244.873046875" xlink:href="#BitstreamVeraSans-Roman-44"/>
      <use x="321.875" xlink:href="#BitstreamVeraSans-Roman-20"/>
      <use x="353.662109375" xlink:href="#BitstreamVeraSans-Roman-56"/>
      <use x="414.3203125" xlink:href="#BitstreamVeraSans-Roman-6f"/>
      <use x="475.501953125" xlink:href="#BitstreamVeraSans-Roman-6c"/>
      <use x="503.28515625" xlink:href="#BitstreamVeraSans-Roman-74"/>
      <use x="542.494140625" xlink:href="#BitstreamVeraSans-Roman-61"/>
      <use x="603.7734375" xlink:href="#BitstreamVeraSans-Roman-67"/>
      <use x="667.25" xlink:href="#BitstreamVeraSans-Roman-65"/>
      <use x="728.7734375" xlink:href="#BitstreamVeraSans-Roman-28"/>
      <use x="767.787109375" xlink:href="#BitstreamVeraSans-Roman-75"/>
      <use x="831.166015625" xlink:href="#BitstreamVeraSans-Roman-56"/>
      <use x="899.57421875" xlink:href="#BitstreamVeraSans-Roman-29"/>
     </g>
    </g>
   </g>
   <g id="patch_3">
    <path d="
M72 43.02
L518.4 43.02" style="fill:none;stroke:#000000;"/>
   </g>
   <g id="patch_4">
    <path d="
M518.4 387.18
L518.4 43.02" style="fill:none;stroke:#000000;"/>
   </g>
   <g id="patch_5">
    <path d="
M72 387.18
L518.4 387.18" style="fill:none;stroke:#000000;"/>
   </g>
   <g id="patch_6">
    <path d="
M72 387.18
L72 43.02" style="fill:none;stroke:#000000;"/>
   </g>
  </g>
 </g>
 <defs>
  <clipPath id="p8092a36277">
   <rect height="344.16" width="446.4" x="72.0" y="43.02"/>
  </clipPath>
 </defs>
</svg>
