<?xml version="1.0" encoding="utf-8" standalone="no"?>
<!DOCTYPE svg PUBLIC "-//W3C//DTD SVG 1.1//EN"
  "http://www.w3.org/Graphics/SVG/1.1/DTD/svg11.dtd">
<!-- Created with matplotlib (http://matplotlib.org/) -->
<svg height="573.12pt" version="1.1" viewBox="0 0 720 573.12" width="720pt" xmlns="http://www.w3.org/2000/svg" xmlns:xlink="http://www.w3.org/1999/xlink">
 <defs>
  <style type="text/css">
*{stroke-linecap:butt;stroke-linejoin:round;}
  </style>
 </defs>
 <g id="figure_1">
  <g id="patch_1">
   <path d="M 0 573.12 
L 720 573.12 
L 720 0 
L 0 0 
z
" style="fill:#ffffff;"/>
  </g>
  <g id="axes_1">
   <g id="patch_2">
    <path d="M 90 510.0768 
L 648 510.0768 
L 648 68.7744 
L 90 68.7744 
z
" style="fill:#ffffff;"/>
   </g>
   <g id="matplotlib.axis_1">
    <g id="xtick_1">
     <g id="line2d_1">
      <defs>
       <path d="M 0 0 
L 0 3.5 
" id="m9a63191af3" style="stroke:#000000;stroke-width:0.8;"/>
      </defs>
      <g>
       <use style="stroke:#000000;stroke-width:0.8;" x="115.341009" xlink:href="#m9a63191af3" y="510.0768"/>
      </g>
     </g>
     <g id="text_1">
      <!-- 0 -->
      <defs>
       <path d="M 31.78125 66.40625 
Q 24.171875 66.40625 20.328125 58.90625 
Q 16.5 51.421875 16.5 36.375 
Q 16.5 21.390625 20.328125 13.890625 
Q 24.171875 6.390625 31.78125 6.390625 
Q 39.453125 6.390625 43.28125 13.890625 
Q 47.125 21.390625 47.125 36.375 
Q 47.125 51.421875 43.28125 58.90625 
Q 39.453125 66.40625 31.78125 66.40625 
z
M 31.78125 74.21875 
Q 44.046875 74.21875 50.515625 64.515625 
Q 56.984375 54.828125 56.984375 36.375 
Q 56.984375 17.96875 50.515625 8.265625 
Q 44.046875 -1.421875 31.78125 -1.421875 
Q 19.53125 -1.421875 13.0625 8.265625 
Q 6.59375 17.96875 6.59375 36.375 
Q 6.59375 54.828125 13.0625 64.515625 
Q 19.53125 74.21875 31.78125 74.21875 
z
" id="DejaVuSans-30"/>
      </defs>
      <g transform="translate(112.159759 524.675237)scale(0.1 -0.1)">
       <use xlink:href="#DejaVuSans-30"/>
      </g>
     </g>
    </g>
    <g id="xtick_2">
     <g id="line2d_2">
      <g>
       <use style="stroke:#000000;stroke-width:0.8;" x="210.332131" xlink:href="#m9a63191af3" y="510.0768"/>
      </g>
     </g>
     <g id="text_2">
      <!-- 50 -->
      <defs>
       <path d="M 10.796875 72.90625 
L 49.515625 72.90625 
L 49.515625 64.59375 
L 19.828125 64.59375 
L 19.828125 46.734375 
Q 21.96875 47.46875 24.109375 47.828125 
Q 26.265625 48.1875 28.421875 48.1875 
Q 40.625 48.1875 47.75 41.5 
Q 54.890625 34.8125 54.890625 23.390625 
Q 54.890625 11.625 47.5625 5.09375 
Q 40.234375 -1.421875 26.90625 -1.421875 
Q 22.3125 -1.421875 17.546875 -0.640625 
Q 12.796875 0.140625 7.71875 1.703125 
L 7.71875 11.625 
Q 12.109375 9.234375 16.796875 8.0625 
Q 21.484375 6.890625 26.703125 6.890625 
Q 35.15625 6.890625 40.078125 11.328125 
Q 45.015625 15.765625 45.015625 23.390625 
Q 45.015625 31 40.078125 35.4375 
Q 35.15625 39.890625 26.703125 39.890625 
Q 22.75 39.890625 18.8125 39.015625 
Q 14.890625 38.140625 10.796875 36.28125 
z
" id="DejaVuSans-35"/>
      </defs>
      <g transform="translate(203.969631 524.675237)scale(0.1 -0.1)">
       <use xlink:href="#DejaVuSans-35"/>
       <use x="63.623047" xlink:href="#DejaVuSans-30"/>
      </g>
     </g>
    </g>
    <g id="xtick_3">
     <g id="line2d_3">
      <g>
       <use style="stroke:#000000;stroke-width:0.8;" x="305.323253" xlink:href="#m9a63191af3" y="510.0768"/>
      </g>
     </g>
     <g id="text_3">
      <!-- 100 -->
      <defs>
       <path d="M 12.40625 8.296875 
L 28.515625 8.296875 
L 28.515625 63.921875 
L 10.984375 60.40625 
L 10.984375 69.390625 
L 28.421875 72.90625 
L 38.28125 72.90625 
L 38.28125 8.296875 
L 54.390625 8.296875 
L 54.390625 0 
L 12.40625 0 
z
" id="DejaVuSans-31"/>
      </defs>
      <g transform="translate(295.779503 524.675237)scale(0.1 -0.1)">
       <use xlink:href="#DejaVuSans-31"/>
       <use x="63.623047" xlink:href="#DejaVuSans-30"/>
       <use x="127.246094" xlink:href="#DejaVuSans-30"/>
      </g>
     </g>
    </g>
    <g id="xtick_4">
     <g id="line2d_4">
      <g>
       <use style="stroke:#000000;stroke-width:0.8;" x="400.314376" xlink:href="#m9a63191af3" y="510.0768"/>
      </g>
     </g>
     <g id="text_4">
      <!-- 150 -->
      <g transform="translate(390.770626 524.675237)scale(0.1 -0.1)">
       <use xlink:href="#DejaVuSans-31"/>
       <use x="63.623047" xlink:href="#DejaVuSans-35"/>
       <use x="127.246094" xlink:href="#DejaVuSans-30"/>
      </g>
     </g>
    </g>
    <g id="xtick_5">
     <g id="line2d_5">
      <g>
       <use style="stroke:#000000;stroke-width:0.8;" x="495.305498" xlink:href="#m9a63191af3" y="510.0768"/>
      </g>
     </g>
     <g id="text_5">
      <!-- 200 -->
      <defs>
       <path d="M 19.1875 8.296875 
L 53.609375 8.296875 
L 53.609375 0 
L 7.328125 0 
L 7.328125 8.296875 
Q 12.9375 14.109375 22.625 23.890625 
Q 32.328125 33.6875 34.8125 36.53125 
Q 39.546875 41.84375 41.421875 45.53125 
Q 43.3125 49.21875 43.3125 52.78125 
Q 43.3125 58.59375 39.234375 62.25 
Q 35.15625 65.921875 28.609375 65.921875 
Q 23.96875 65.921875 18.8125 64.3125 
Q 13.671875 62.703125 7.8125 59.421875 
L 7.8125 69.390625 
Q 13.765625 71.78125 18.9375 73 
Q 24.125 74.21875 28.421875 74.21875 
Q 39.75 74.21875 46.484375 68.546875 
Q 53.21875 62.890625 53.21875 53.421875 
Q 53.21875 48.921875 51.53125 44.890625 
Q 49.859375 40.875 45.40625 35.40625 
Q 44.1875 33.984375 37.640625 27.21875 
Q 31.109375 20.453125 19.1875 8.296875 
z
" id="DejaVuSans-32"/>
      </defs>
      <g transform="translate(485.761748 524.675237)scale(0.1 -0.1)">
       <use xlink:href="#DejaVuSans-32"/>
       <use x="63.623047" xlink:href="#DejaVuSans-30"/>
       <use x="127.246094" xlink:href="#DejaVuSans-30"/>
      </g>
     </g>
    </g>
    <g id="xtick_6">
     <g id="line2d_6">
      <g>
       <use style="stroke:#000000;stroke-width:0.8;" x="590.29662" xlink:href="#m9a63191af3" y="510.0768"/>
      </g>
     </g>
     <g id="text_6">
      <!-- 250 -->
      <g transform="translate(580.75287 524.675237)scale(0.1 -0.1)">
       <use xlink:href="#DejaVuSans-32"/>
       <use x="63.623047" xlink:href="#DejaVuSans-35"/>
       <use x="127.246094" xlink:href="#DejaVuSans-30"/>
      </g>
     </g>
    </g>
    <g id="text_7">
     <!-- Mod Coil Current (uA) -->
     <defs>
      <path d="M 9.8125 72.90625 
L 24.515625 72.90625 
L 43.109375 23.296875 
L 61.8125 72.90625 
L 76.515625 72.90625 
L 76.515625 0 
L 66.890625 0 
L 66.890625 64.015625 
L 48.09375 14.015625 
L 38.1875 14.015625 
L 19.390625 64.015625 
L 19.390625 0 
L 9.8125 0 
z
" id="DejaVuSans-4d"/>
      <path d="M 30.609375 48.390625 
Q 23.390625 48.390625 19.1875 42.75 
Q 14.984375 37.109375 14.984375 27.296875 
Q 14.984375 17.484375 19.15625 11.84375 
Q 23.34375 6.203125 30.609375 6.203125 
Q 37.796875 6.203125 41.984375 11.859375 
Q 46.1875 17.53125 46.1875 27.296875 
Q 46.1875 37.015625 41.984375 42.703125 
Q 37.796875 48.390625 30.609375 48.390625 
z
M 30.609375 56 
Q 42.328125 56 49.015625 48.375 
Q 55.71875 40.765625 55.71875 27.296875 
Q 55.71875 13.875 49.015625 6.21875 
Q 42.328125 -1.421875 30.609375 -1.421875 
Q 18.84375 -1.421875 12.171875 6.21875 
Q 5.515625 13.875 5.515625 27.296875 
Q 5.515625 40.765625 12.171875 48.375 
Q 18.84375 56 30.609375 56 
z
" id="DejaVuSans-6f"/>
      <path d="M 45.40625 46.390625 
L 45.40625 75.984375 
L 54.390625 75.984375 
L 54.390625 0 
L 45.40625 0 
L 45.40625 8.203125 
Q 42.578125 3.328125 38.25 0.953125 
Q 33.9375 -1.421875 27.875 -1.421875 
Q 17.96875 -1.421875 11.734375 6.484375 
Q 5.515625 14.40625 5.515625 27.296875 
Q 5.515625 40.1875 11.734375 48.09375 
Q 17.96875 56 27.875 56 
Q 33.9375 56 38.25 53.625 
Q 42.578125 51.265625 45.40625 46.390625 
z
M 14.796875 27.296875 
Q 14.796875 17.390625 18.875 11.75 
Q 22.953125 6.109375 30.078125 6.109375 
Q 37.203125 6.109375 41.296875 11.75 
Q 45.40625 17.390625 45.40625 27.296875 
Q 45.40625 37.203125 41.296875 42.84375 
Q 37.203125 48.484375 30.078125 48.484375 
Q 22.953125 48.484375 18.875 42.84375 
Q 14.796875 37.203125 14.796875 27.296875 
z
" id="DejaVuSans-64"/>
      <path id="DejaVuSans-20"/>
      <path d="M 64.40625 67.28125 
L 64.40625 56.890625 
Q 59.421875 61.53125 53.78125 63.8125 
Q 48.140625 66.109375 41.796875 66.109375 
Q 29.296875 66.109375 22.65625 58.46875 
Q 16.015625 50.828125 16.015625 36.375 
Q 16.015625 21.96875 22.65625 14.328125 
Q 29.296875 6.6875 41.796875 6.6875 
Q 48.140625 6.6875 53.78125 8.984375 
Q 59.421875 11.28125 64.40625 15.921875 
L 64.40625 5.609375 
Q 59.234375 2.09375 53.4375 0.328125 
Q 47.65625 -1.421875 41.21875 -1.421875 
Q 24.65625 -1.421875 15.125 8.703125 
Q 5.609375 18.84375 5.609375 36.375 
Q 5.609375 53.953125 15.125 64.078125 
Q 24.65625 74.21875 41.21875 74.21875 
Q 47.75 74.21875 53.53125 72.484375 
Q 59.328125 70.75 64.40625 67.28125 
z
" id="DejaVuSans-43"/>
      <path d="M 9.421875 54.6875 
L 18.40625 54.6875 
L 18.40625 0 
L 9.421875 0 
z
M 9.421875 75.984375 
L 18.40625 75.984375 
L 18.40625 64.59375 
L 9.421875 64.59375 
z
" id="DejaVuSans-69"/>
      <path d="M 9.421875 75.984375 
L 18.40625 75.984375 
L 18.40625 0 
L 9.421875 0 
z
" id="DejaVuSans-6c"/>
      <path d="M 8.5 21.578125 
L 8.5 54.6875 
L 17.484375 54.6875 
L 17.484375 21.921875 
Q 17.484375 14.15625 20.5 10.265625 
Q 23.53125 6.390625 29.59375 6.390625 
Q 36.859375 6.390625 41.078125 11.03125 
Q 45.3125 15.671875 45.3125 23.6875 
L 45.3125 54.6875 
L 54.296875 54.6875 
L 54.296875 0 
L 45.3125 0 
L 45.3125 8.40625 
Q 42.046875 3.421875 37.71875 1 
Q 33.40625 -1.421875 27.6875 -1.421875 
Q 18.265625 -1.421875 13.375 4.4375 
Q 8.5 10.296875 8.5 21.578125 
z
M 31.109375 56 
z
" id="DejaVuSans-75"/>
      <path d="M 41.109375 46.296875 
Q 39.59375 47.171875 37.8125 47.578125 
Q 36.03125 48 33.890625 48 
Q 26.265625 48 22.1875 43.046875 
Q 18.109375 38.09375 18.109375 28.8125 
L 18.109375 0 
L 9.078125 0 
L 9.078125 54.6875 
L 18.109375 54.6875 
L 18.109375 46.1875 
Q 20.953125 51.171875 25.484375 53.578125 
Q 30.03125 56 36.53125 56 
Q 37.453125 56 38.578125 55.875 
Q 39.703125 55.765625 41.0625 55.515625 
z
" id="DejaVuSans-72"/>
      <path d="M 56.203125 29.59375 
L 56.203125 25.203125 
L 14.890625 25.203125 
Q 15.484375 15.921875 20.484375 11.0625 
Q 25.484375 6.203125 34.421875 6.203125 
Q 39.59375 6.203125 44.453125 7.46875 
Q 49.3125 8.734375 54.109375 11.28125 
L 54.109375 2.78125 
Q 49.265625 0.734375 44.1875 -0.34375 
Q 39.109375 -1.421875 33.890625 -1.421875 
Q 20.796875 -1.421875 13.15625 6.1875 
Q 5.515625 13.8125 5.515625 26.8125 
Q 5.515625 40.234375 12.765625 48.109375 
Q 20.015625 56 32.328125 56 
Q 43.359375 56 49.78125 48.890625 
Q 56.203125 41.796875 56.203125 29.59375 
z
M 47.21875 32.234375 
Q 47.125 39.59375 43.09375 43.984375 
Q 39.0625 48.390625 32.421875 48.390625 
Q 24.90625 48.390625 20.390625 44.140625 
Q 15.875 39.890625 15.1875 32.171875 
z
" id="DejaVuSans-65"/>
      <path d="M 54.890625 33.015625 
L 54.890625 0 
L 45.90625 0 
L 45.90625 32.71875 
Q 45.90625 40.484375 42.875 44.328125 
Q 39.84375 48.1875 33.796875 48.1875 
Q 26.515625 48.1875 22.3125 43.546875 
Q 18.109375 38.921875 18.109375 30.90625 
L 18.109375 0 
L 9.078125 0 
L 9.078125 54.6875 
L 18.109375 54.6875 
L 18.109375 46.1875 
Q 21.34375 51.125 25.703125 53.5625 
Q 30.078125 56 35.796875 56 
Q 45.21875 56 50.046875 50.171875 
Q 54.890625 44.34375 54.890625 33.015625 
z
" id="DejaVuSans-6e"/>
      <path d="M 18.3125 70.21875 
L 18.3125 54.6875 
L 36.8125 54.6875 
L 36.8125 47.703125 
L 18.3125 47.703125 
L 18.3125 18.015625 
Q 18.3125 11.328125 20.140625 9.421875 
Q 21.96875 7.515625 27.59375 7.515625 
L 36.8125 7.515625 
L 36.8125 0 
L 27.59375 0 
Q 17.1875 0 13.234375 3.875 
Q 9.28125 7.765625 9.28125 18.015625 
L 9.28125 47.703125 
L 2.6875 47.703125 
L 2.6875 54.6875 
L 9.28125 54.6875 
L 9.28125 70.21875 
z
" id="DejaVuSans-74"/>
      <path d="M 31 75.875 
Q 24.46875 64.65625 21.28125 53.65625 
Q 18.109375 42.671875 18.109375 31.390625 
Q 18.109375 20.125 21.3125 9.0625 
Q 24.515625 -2 31 -13.1875 
L 23.1875 -13.1875 
Q 15.875 -1.703125 12.234375 9.375 
Q 8.59375 20.453125 8.59375 31.390625 
Q 8.59375 42.28125 12.203125 53.3125 
Q 15.828125 64.359375 23.1875 75.875 
z
" id="DejaVuSans-28"/>
      <path d="M 34.1875 63.1875 
L 20.796875 26.90625 
L 47.609375 26.90625 
z
M 28.609375 72.90625 
L 39.796875 72.90625 
L 67.578125 0 
L 57.328125 0 
L 50.6875 18.703125 
L 17.828125 18.703125 
L 11.1875 0 
L 0.78125 0 
z
" id="DejaVuSans-41"/>
      <path d="M 8.015625 75.875 
L 15.828125 75.875 
Q 23.140625 64.359375 26.78125 53.3125 
Q 30.421875 42.28125 30.421875 31.390625 
Q 30.421875 20.453125 26.78125 9.375 
Q 23.140625 -1.703125 15.828125 -13.1875 
L 8.015625 -13.1875 
Q 14.5 -2 17.703125 9.0625 
Q 20.90625 20.125 20.90625 31.390625 
Q 20.90625 42.671875 17.703125 53.65625 
Q 14.5 64.65625 8.015625 75.875 
z
" id="DejaVuSans-29"/>
     </defs>
     <g transform="translate(314.891406 538.353363)scale(0.1 -0.1)">
      <use xlink:href="#DejaVuSans-4d"/>
      <use x="86.279297" xlink:href="#DejaVuSans-6f"/>
      <use x="147.460938" xlink:href="#DejaVuSans-64"/>
      <use x="210.9375" xlink:href="#DejaVuSans-20"/>
      <use x="242.724609" xlink:href="#DejaVuSans-43"/>
      <use x="312.548828" xlink:href="#DejaVuSans-6f"/>
      <use x="373.730469" xlink:href="#DejaVuSans-69"/>
      <use x="401.513672" xlink:href="#DejaVuSans-6c"/>
      <use x="429.296875" xlink:href="#DejaVuSans-20"/>
      <use x="461.083984" xlink:href="#DejaVuSans-43"/>
      <use x="530.908203" xlink:href="#DejaVuSans-75"/>
      <use x="594.287109" xlink:href="#DejaVuSans-72"/>
      <use x="635.384766" xlink:href="#DejaVuSans-72"/>
      <use x="676.466797" xlink:href="#DejaVuSans-65"/>
      <use x="737.990234" xlink:href="#DejaVuSans-6e"/>
      <use x="801.369141" xlink:href="#DejaVuSans-74"/>
      <use x="840.578125" xlink:href="#DejaVuSans-20"/>
      <use x="872.365234" xlink:href="#DejaVuSans-28"/>
      <use x="911.378906" xlink:href="#DejaVuSans-75"/>
      <use x="974.757812" xlink:href="#DejaVuSans-41"/>
      <use x="1043.166016" xlink:href="#DejaVuSans-29"/>
     </g>
    </g>
   </g>
   <g id="matplotlib.axis_2">
    <g id="ytick_1">
     <g id="line2d_7">
      <defs>
       <path d="M 0 0 
L -3.5 0 
" id="m6f594bc100" style="stroke:#000000;stroke-width:0.8;"/>
      </defs>
      <g>
       <use style="stroke:#000000;stroke-width:0.8;" x="90" xlink:href="#m6f594bc100" y="466.674785"/>
      </g>
     </g>
     <g id="text_8">
      <!-- 32 -->
      <defs>
       <path d="M 40.578125 39.3125 
Q 47.65625 37.796875 51.625 33 
Q 55.609375 28.21875 55.609375 21.1875 
Q 55.609375 10.40625 48.1875 4.484375 
Q 40.765625 -1.421875 27.09375 -1.421875 
Q 22.515625 -1.421875 17.65625 -0.515625 
Q 12.796875 0.390625 7.625 2.203125 
L 7.625 11.71875 
Q 11.71875 9.328125 16.59375 8.109375 
Q 21.484375 6.890625 26.8125 6.890625 
Q 36.078125 6.890625 40.9375 10.546875 
Q 45.796875 14.203125 45.796875 21.1875 
Q 45.796875 27.640625 41.28125 31.265625 
Q 36.765625 34.90625 28.71875 34.90625 
L 20.21875 34.90625 
L 20.21875 43.015625 
L 29.109375 43.015625 
Q 36.375 43.015625 40.234375 45.921875 
Q 44.09375 48.828125 44.09375 54.296875 
Q 44.09375 59.90625 40.109375 62.90625 
Q 36.140625 65.921875 28.71875 65.921875 
Q 24.65625 65.921875 20.015625 65.03125 
Q 15.375 64.15625 9.8125 62.3125 
L 9.8125 71.09375 
Q 15.4375 72.65625 20.34375 73.4375 
Q 25.25 74.21875 29.59375 74.21875 
Q 40.828125 74.21875 47.359375 69.109375 
Q 53.90625 64.015625 53.90625 55.328125 
Q 53.90625 49.265625 50.4375 45.09375 
Q 46.96875 40.921875 40.578125 39.3125 
z
" id="DejaVuSans-33"/>
      </defs>
      <g transform="translate(70.275 470.474003)scale(0.1 -0.1)">
       <use xlink:href="#DejaVuSans-33"/>
       <use x="63.623047" xlink:href="#DejaVuSans-32"/>
      </g>
     </g>
    </g>
    <g id="ytick_2">
     <g id="line2d_8">
      <g>
       <use style="stroke:#000000;stroke-width:0.8;" x="90" xlink:href="#m6f594bc100" y="411.610585"/>
      </g>
     </g>
     <g id="text_9">
      <!-- 33 -->
      <g transform="translate(70.275 415.409804)scale(0.1 -0.1)">
       <use xlink:href="#DejaVuSans-33"/>
       <use x="63.623047" xlink:href="#DejaVuSans-33"/>
      </g>
     </g>
    </g>
    <g id="ytick_3">
     <g id="line2d_9">
      <g>
       <use style="stroke:#000000;stroke-width:0.8;" x="90" xlink:href="#m6f594bc100" y="356.546386"/>
      </g>
     </g>
     <g id="text_10">
      <!-- 34 -->
      <defs>
       <path d="M 37.796875 64.3125 
L 12.890625 25.390625 
L 37.796875 25.390625 
z
M 35.203125 72.90625 
L 47.609375 72.90625 
L 47.609375 25.390625 
L 58.015625 25.390625 
L 58.015625 17.1875 
L 47.609375 17.1875 
L 47.609375 0 
L 37.796875 0 
L 37.796875 17.1875 
L 4.890625 17.1875 
L 4.890625 26.703125 
z
" id="DejaVuSans-34"/>
      </defs>
      <g transform="translate(70.275 360.345605)scale(0.1 -0.1)">
       <use xlink:href="#DejaVuSans-33"/>
       <use x="63.623047" xlink:href="#DejaVuSans-34"/>
      </g>
     </g>
    </g>
    <g id="ytick_4">
     <g id="line2d_10">
      <g>
       <use style="stroke:#000000;stroke-width:0.8;" x="90" xlink:href="#m6f594bc100" y="301.482187"/>
      </g>
     </g>
     <g id="text_11">
      <!-- 35 -->
      <g transform="translate(70.275 305.281405)scale(0.1 -0.1)">
       <use xlink:href="#DejaVuSans-33"/>
       <use x="63.623047" xlink:href="#DejaVuSans-35"/>
      </g>
     </g>
    </g>
    <g id="ytick_5">
     <g id="line2d_11">
      <g>
       <use style="stroke:#000000;stroke-width:0.8;" x="90" xlink:href="#m6f594bc100" y="246.417987"/>
      </g>
     </g>
     <g id="text_12">
      <!-- 36 -->
      <defs>
       <path d="M 33.015625 40.375 
Q 26.375 40.375 22.484375 35.828125 
Q 18.609375 31.296875 18.609375 23.390625 
Q 18.609375 15.53125 22.484375 10.953125 
Q 26.375 6.390625 33.015625 6.390625 
Q 39.65625 6.390625 43.53125 10.953125 
Q 47.40625 15.53125 47.40625 23.390625 
Q 47.40625 31.296875 43.53125 35.828125 
Q 39.65625 40.375 33.015625 40.375 
z
M 52.59375 71.296875 
L 52.59375 62.3125 
Q 48.875 64.0625 45.09375 64.984375 
Q 41.3125 65.921875 37.59375 65.921875 
Q 27.828125 65.921875 22.671875 59.328125 
Q 17.53125 52.734375 16.796875 39.40625 
Q 19.671875 43.65625 24.015625 45.921875 
Q 28.375 48.1875 33.59375 48.1875 
Q 44.578125 48.1875 50.953125 41.515625 
Q 57.328125 34.859375 57.328125 23.390625 
Q 57.328125 12.15625 50.6875 5.359375 
Q 44.046875 -1.421875 33.015625 -1.421875 
Q 20.359375 -1.421875 13.671875 8.265625 
Q 6.984375 17.96875 6.984375 36.375 
Q 6.984375 53.65625 15.1875 63.9375 
Q 23.390625 74.21875 37.203125 74.21875 
Q 40.921875 74.21875 44.703125 73.484375 
Q 48.484375 72.75 52.59375 71.296875 
z
" id="DejaVuSans-36"/>
      </defs>
      <g transform="translate(70.275 250.217206)scale(0.1 -0.1)">
       <use xlink:href="#DejaVuSans-33"/>
       <use x="63.623047" xlink:href="#DejaVuSans-36"/>
      </g>
     </g>
    </g>
    <g id="ytick_6">
     <g id="line2d_12">
      <g>
       <use style="stroke:#000000;stroke-width:0.8;" x="90" xlink:href="#m6f594bc100" y="191.353788"/>
      </g>
     </g>
     <g id="text_13">
      <!-- 37 -->
      <defs>
       <path d="M 8.203125 72.90625 
L 55.078125 72.90625 
L 55.078125 68.703125 
L 28.609375 0 
L 18.3125 0 
L 43.21875 64.59375 
L 8.203125 64.59375 
z
" id="DejaVuSans-37"/>
      </defs>
      <g transform="translate(70.275 195.153007)scale(0.1 -0.1)">
       <use xlink:href="#DejaVuSans-33"/>
       <use x="63.623047" xlink:href="#DejaVuSans-37"/>
      </g>
     </g>
    </g>
    <g id="ytick_7">
     <g id="line2d_13">
      <g>
       <use style="stroke:#000000;stroke-width:0.8;" x="90" xlink:href="#m6f594bc100" y="136.289589"/>
      </g>
     </g>
     <g id="text_14">
      <!-- 38 -->
      <defs>
       <path d="M 31.78125 34.625 
Q 24.75 34.625 20.71875 30.859375 
Q 16.703125 27.09375 16.703125 20.515625 
Q 16.703125 13.921875 20.71875 10.15625 
Q 24.75 6.390625 31.78125 6.390625 
Q 38.8125 6.390625 42.859375 10.171875 
Q 46.921875 13.96875 46.921875 20.515625 
Q 46.921875 27.09375 42.890625 30.859375 
Q 38.875 34.625 31.78125 34.625 
z
M 21.921875 38.8125 
Q 15.578125 40.375 12.03125 44.71875 
Q 8.5 49.078125 8.5 55.328125 
Q 8.5 64.0625 14.71875 69.140625 
Q 20.953125 74.21875 31.78125 74.21875 
Q 42.671875 74.21875 48.875 69.140625 
Q 55.078125 64.0625 55.078125 55.328125 
Q 55.078125 49.078125 51.53125 44.71875 
Q 48 40.375 41.703125 38.8125 
Q 48.828125 37.15625 52.796875 32.3125 
Q 56.78125 27.484375 56.78125 20.515625 
Q 56.78125 9.90625 50.3125 4.234375 
Q 43.84375 -1.421875 31.78125 -1.421875 
Q 19.734375 -1.421875 13.25 4.234375 
Q 6.78125 9.90625 6.78125 20.515625 
Q 6.78125 27.484375 10.78125 32.3125 
Q 14.796875 37.15625 21.921875 38.8125 
z
M 18.3125 54.390625 
Q 18.3125 48.734375 21.84375 45.5625 
Q 25.390625 42.390625 31.78125 42.390625 
Q 38.140625 42.390625 41.71875 45.5625 
Q 45.3125 48.734375 45.3125 54.390625 
Q 45.3125 60.0625 41.71875 63.234375 
Q 38.140625 66.40625 31.78125 66.40625 
Q 25.390625 66.40625 21.84375 63.234375 
Q 18.3125 60.0625 18.3125 54.390625 
z
" id="DejaVuSans-38"/>
      </defs>
      <g transform="translate(70.275 140.088807)scale(0.1 -0.1)">
       <use xlink:href="#DejaVuSans-33"/>
       <use x="63.623047" xlink:href="#DejaVuSans-38"/>
      </g>
     </g>
    </g>
    <g id="ytick_8">
     <g id="line2d_14">
      <g>
       <use style="stroke:#000000;stroke-width:0.8;" x="90" xlink:href="#m6f594bc100" y="81.225389"/>
      </g>
     </g>
     <g id="text_15">
      <!-- 39 -->
      <defs>
       <path d="M 10.984375 1.515625 
L 10.984375 10.5 
Q 14.703125 8.734375 18.5 7.8125 
Q 22.3125 6.890625 25.984375 6.890625 
Q 35.75 6.890625 40.890625 13.453125 
Q 46.046875 20.015625 46.78125 33.40625 
Q 43.953125 29.203125 39.59375 26.953125 
Q 35.25 24.703125 29.984375 24.703125 
Q 19.046875 24.703125 12.671875 31.3125 
Q 6.296875 37.9375 6.296875 49.421875 
Q 6.296875 60.640625 12.9375 67.421875 
Q 19.578125 74.21875 30.609375 74.21875 
Q 43.265625 74.21875 49.921875 64.515625 
Q 56.59375 54.828125 56.59375 36.375 
Q 56.59375 19.140625 48.40625 8.859375 
Q 40.234375 -1.421875 26.421875 -1.421875 
Q 22.703125 -1.421875 18.890625 -0.6875 
Q 15.09375 0.046875 10.984375 1.515625 
z
M 30.609375 32.421875 
Q 37.25 32.421875 41.125 36.953125 
Q 45.015625 41.5 45.015625 49.421875 
Q 45.015625 57.28125 41.125 61.84375 
Q 37.25 66.40625 30.609375 66.40625 
Q 23.96875 66.40625 20.09375 61.84375 
Q 16.21875 57.28125 16.21875 49.421875 
Q 16.21875 41.5 20.09375 36.953125 
Q 23.96875 32.421875 30.609375 32.421875 
z
" id="DejaVuSans-39"/>
      </defs>
      <g transform="translate(70.275 85.024608)scale(0.1 -0.1)">
       <use xlink:href="#DejaVuSans-33"/>
       <use x="63.623047" xlink:href="#DejaVuSans-39"/>
      </g>
     </g>
    </g>
    <g id="text_16">
     <!-- SQUID Voltage(uV) -->
     <defs>
      <path d="M 53.515625 70.515625 
L 53.515625 60.890625 
Q 47.90625 63.578125 42.921875 64.890625 
Q 37.9375 66.21875 33.296875 66.21875 
Q 25.25 66.21875 20.875 63.09375 
Q 16.5 59.96875 16.5 54.203125 
Q 16.5 49.359375 19.40625 46.890625 
Q 22.3125 44.4375 30.421875 42.921875 
L 36.375 41.703125 
Q 47.40625 39.59375 52.65625 34.296875 
Q 57.90625 29 57.90625 20.125 
Q 57.90625 9.515625 50.796875 4.046875 
Q 43.703125 -1.421875 29.984375 -1.421875 
Q 24.8125 -1.421875 18.96875 -0.25 
Q 13.140625 0.921875 6.890625 3.21875 
L 6.890625 13.375 
Q 12.890625 10.015625 18.65625 8.296875 
Q 24.421875 6.59375 29.984375 6.59375 
Q 38.421875 6.59375 43.015625 9.90625 
Q 47.609375 13.234375 47.609375 19.390625 
Q 47.609375 24.75 44.3125 27.78125 
Q 41.015625 30.8125 33.5 32.328125 
L 27.484375 33.5 
Q 16.453125 35.6875 11.515625 40.375 
Q 6.59375 45.0625 6.59375 53.421875 
Q 6.59375 63.09375 13.40625 68.65625 
Q 20.21875 74.21875 32.171875 74.21875 
Q 37.3125 74.21875 42.625 73.28125 
Q 47.953125 72.359375 53.515625 70.515625 
z
" id="DejaVuSans-53"/>
      <path d="M 39.40625 66.21875 
Q 28.65625 66.21875 22.328125 58.203125 
Q 16.015625 50.203125 16.015625 36.375 
Q 16.015625 22.609375 22.328125 14.59375 
Q 28.65625 6.59375 39.40625 6.59375 
Q 50.140625 6.59375 56.421875 14.59375 
Q 62.703125 22.609375 62.703125 36.375 
Q 62.703125 50.203125 56.421875 58.203125 
Q 50.140625 66.21875 39.40625 66.21875 
z
M 53.21875 1.3125 
L 66.21875 -12.890625 
L 54.296875 -12.890625 
L 43.5 -1.21875 
Q 41.890625 -1.3125 41.03125 -1.359375 
Q 40.1875 -1.421875 39.40625 -1.421875 
Q 24.03125 -1.421875 14.8125 8.859375 
Q 5.609375 19.140625 5.609375 36.375 
Q 5.609375 53.65625 14.8125 63.9375 
Q 24.03125 74.21875 39.40625 74.21875 
Q 54.734375 74.21875 63.90625 63.9375 
Q 73.09375 53.65625 73.09375 36.375 
Q 73.09375 23.6875 67.984375 14.640625 
Q 62.890625 5.609375 53.21875 1.3125 
z
" id="DejaVuSans-51"/>
      <path d="M 8.6875 72.90625 
L 18.609375 72.90625 
L 18.609375 28.609375 
Q 18.609375 16.890625 22.84375 11.734375 
Q 27.09375 6.59375 36.625 6.59375 
Q 46.09375 6.59375 50.34375 11.734375 
Q 54.59375 16.890625 54.59375 28.609375 
L 54.59375 72.90625 
L 64.5 72.90625 
L 64.5 27.390625 
Q 64.5 13.140625 57.4375 5.859375 
Q 50.390625 -1.421875 36.625 -1.421875 
Q 22.796875 -1.421875 15.734375 5.859375 
Q 8.6875 13.140625 8.6875 27.390625 
z
" id="DejaVuSans-55"/>
      <path d="M 9.8125 72.90625 
L 19.671875 72.90625 
L 19.671875 0 
L 9.8125 0 
z
" id="DejaVuSans-49"/>
      <path d="M 19.671875 64.796875 
L 19.671875 8.109375 
L 31.59375 8.109375 
Q 46.6875 8.109375 53.6875 14.9375 
Q 60.6875 21.78125 60.6875 36.53125 
Q 60.6875 51.171875 53.6875 57.984375 
Q 46.6875 64.796875 31.59375 64.796875 
z
M 9.8125 72.90625 
L 30.078125 72.90625 
Q 51.265625 72.90625 61.171875 64.09375 
Q 71.09375 55.28125 71.09375 36.53125 
Q 71.09375 17.671875 61.125 8.828125 
Q 51.171875 0 30.078125 0 
L 9.8125 0 
z
" id="DejaVuSans-44"/>
      <path d="M 28.609375 0 
L 0.78125 72.90625 
L 11.078125 72.90625 
L 34.1875 11.53125 
L 57.328125 72.90625 
L 67.578125 72.90625 
L 39.796875 0 
z
" id="DejaVuSans-56"/>
      <path d="M 34.28125 27.484375 
Q 23.390625 27.484375 19.1875 25 
Q 14.984375 22.515625 14.984375 16.5 
Q 14.984375 11.71875 18.140625 8.90625 
Q 21.296875 6.109375 26.703125 6.109375 
Q 34.1875 6.109375 38.703125 11.40625 
Q 43.21875 16.703125 43.21875 25.484375 
L 43.21875 27.484375 
z
M 52.203125 31.203125 
L 52.203125 0 
L 43.21875 0 
L 43.21875 8.296875 
Q 40.140625 3.328125 35.546875 0.953125 
Q 30.953125 -1.421875 24.3125 -1.421875 
Q 15.921875 -1.421875 10.953125 3.296875 
Q 6 8.015625 6 15.921875 
Q 6 25.140625 12.171875 29.828125 
Q 18.359375 34.515625 30.609375 34.515625 
L 43.21875 34.515625 
L 43.21875 35.40625 
Q 43.21875 41.609375 39.140625 45 
Q 35.0625 48.390625 27.6875 48.390625 
Q 23 48.390625 18.546875 47.265625 
Q 14.109375 46.140625 10.015625 43.890625 
L 10.015625 52.203125 
Q 14.9375 54.109375 19.578125 55.046875 
Q 24.21875 56 28.609375 56 
Q 40.484375 56 46.34375 49.84375 
Q 52.203125 43.703125 52.203125 31.203125 
z
" id="DejaVuSans-61"/>
      <path d="M 45.40625 27.984375 
Q 45.40625 37.75 41.375 43.109375 
Q 37.359375 48.484375 30.078125 48.484375 
Q 22.859375 48.484375 18.828125 43.109375 
Q 14.796875 37.75 14.796875 27.984375 
Q 14.796875 18.265625 18.828125 12.890625 
Q 22.859375 7.515625 30.078125 7.515625 
Q 37.359375 7.515625 41.375 12.890625 
Q 45.40625 18.265625 45.40625 27.984375 
z
M 54.390625 6.78125 
Q 54.390625 -7.171875 48.1875 -13.984375 
Q 42 -20.796875 29.203125 -20.796875 
Q 24.46875 -20.796875 20.265625 -20.09375 
Q 16.0625 -19.390625 12.109375 -17.921875 
L 12.109375 -9.1875 
Q 16.0625 -11.328125 19.921875 -12.34375 
Q 23.78125 -13.375 27.78125 -13.375 
Q 36.625 -13.375 41.015625 -8.765625 
Q 45.40625 -4.15625 45.40625 5.171875 
L 45.40625 9.625 
Q 42.625 4.78125 38.28125 2.390625 
Q 33.9375 0 27.875 0 
Q 17.828125 0 11.671875 7.65625 
Q 5.515625 15.328125 5.515625 27.984375 
Q 5.515625 40.671875 11.671875 48.328125 
Q 17.828125 56 27.875 56 
Q 33.9375 56 38.28125 53.609375 
Q 42.625 51.21875 45.40625 46.390625 
L 45.40625 54.6875 
L 54.390625 54.6875 
z
" id="DejaVuSans-67"/>
     </defs>
     <g transform="translate(64.195312 336.7381)rotate(-90)scale(0.1 -0.1)">
      <use xlink:href="#DejaVuSans-53"/>
      <use x="63.476562" xlink:href="#DejaVuSans-51"/>
      <use x="142.1875" xlink:href="#DejaVuSans-55"/>
      <use x="215.380859" xlink:href="#DejaVuSans-49"/>
      <use x="244.873047" xlink:href="#DejaVuSans-44"/>
      <use x="321.875" xlink:href="#DejaVuSans-20"/>
      <use x="353.662109" xlink:href="#DejaVuSans-56"/>
      <use x="421.960938" xlink:href="#DejaVuSans-6f"/>
      <use x="483.142578" xlink:href="#DejaVuSans-6c"/>
      <use x="510.925781" xlink:href="#DejaVuSans-74"/>
      <use x="550.134766" xlink:href="#DejaVuSans-61"/>
      <use x="611.414062" xlink:href="#DejaVuSans-67"/>
      <use x="674.890625" xlink:href="#DejaVuSans-65"/>
      <use x="736.414062" xlink:href="#DejaVuSans-28"/>
      <use x="775.427734" xlink:href="#DejaVuSans-75"/>
      <use x="838.806641" xlink:href="#DejaVuSans-56"/>
      <use x="907.214844" xlink:href="#DejaVuSans-29"/>
     </g>
    </g>
   </g>
   <g id="line2d_15">
    <defs>
     <path d="M 0 1.5 
C 0.397805 1.5 0.77937 1.341951 1.06066 1.06066 
C 1.341951 0.77937 1.5 0.397805 1.5 0 
C 1.5 -0.397805 1.341951 -0.77937 1.06066 -1.06066 
C 0.77937 -1.341951 0.397805 -1.5 0 -1.5 
C -0.397805 -1.5 -0.77937 -1.341951 -1.06066 -1.06066 
C -1.341951 -0.77937 -1.5 -0.397805 -1.5 0 
C -1.5 0.397805 -1.341951 0.77937 -1.06066 1.06066 
C -0.77937 1.341951 -0.397805 1.5 0 1.5 
z
" id="m324dc5479b" style="stroke:#1f77b4;"/>
    </defs>
    <g clip-path="url(#p5f9a09525c)">
     <use style="fill:#1f77b4;stroke:#1f77b4;" x="115.363636" xlink:href="#m324dc5479b" y="225.846002"/>
     <use style="fill:#1f77b4;stroke:#1f77b4;" x="119.381793" xlink:href="#m324dc5479b" y="237.973342"/>
     <use style="fill:#1f77b4;stroke:#1f77b4;" x="123.412856" xlink:href="#m324dc5479b" y="257.022251"/>
     <use style="fill:#1f77b4;stroke:#1f77b4;" x="127.426235" xlink:href="#m324dc5479b" y="272.937456"/>
     <use style="fill:#1f77b4;stroke:#1f77b4;" x="131.487014" xlink:href="#m324dc5479b" y="288.419307"/>
     <use style="fill:#1f77b4;stroke:#1f77b4;" x="135.569636" xlink:href="#m324dc5479b" y="304.798703"/>
     <use style="fill:#1f77b4;stroke:#1f77b4;" x="139.559165" xlink:href="#m324dc5479b" y="314.521389"/>
     <use style="fill:#1f77b4;stroke:#1f77b4;" x="143.632407" xlink:href="#m324dc5479b" y="326.052934"/>
     <use style="fill:#1f77b4;stroke:#1f77b4;" x="147.621518" xlink:href="#m324dc5479b" y="336.261286"/>
     <use style="fill:#1f77b4;stroke:#1f77b4;" x="151.605908" xlink:href="#m324dc5479b" y="353.78767"/>
     <use style="fill:#1f77b4;stroke:#1f77b4;" x="155.623685" xlink:href="#m324dc5479b" y="370.174225"/>
     <use style="fill:#1f77b4;stroke:#1f77b4;" x="159.607579" xlink:href="#m324dc5479b" y="380.235004"/>
     <use style="fill:#1f77b4;stroke:#1f77b4;" x="163.778047" xlink:href="#m324dc5479b" y="393.488407"/>
     <use style="fill:#1f77b4;stroke:#1f77b4;" x="167.876293" xlink:href="#m324dc5479b" y="404.425258"/>
     <use style="fill:#1f77b4;stroke:#1f77b4;" x="171.906489" xlink:href="#m324dc5479b" y="414.868183"/>
     <use style="fill:#1f77b4;stroke:#1f77b4;" x="175.870428" xlink:href="#m324dc5479b" y="426.282992"/>
     <use style="fill:#1f77b4;stroke:#1f77b4;" x="179.904554" xlink:href="#m324dc5479b" y="436.887806"/>
     <use style="fill:#1f77b4;stroke:#1f77b4;" x="183.868547" xlink:href="#m324dc5479b" y="444.050006"/>
     <use style="fill:#1f77b4;stroke:#1f77b4;" x="187.892007" xlink:href="#m324dc5479b" y="449.926458"/>
     <use style="fill:#1f77b4;stroke:#1f77b4;" x="191.85399" xlink:href="#m324dc5479b" y="460.612767"/>
     <use style="fill:#1f77b4;stroke:#1f77b4;" x="196.065018" xlink:href="#m324dc5479b" y="470.300211"/>
     <use style="fill:#1f77b4;stroke:#1f77b4;" x="200.026976" xlink:href="#m324dc5479b" y="478.331876"/>
     <use style="fill:#1f77b4;stroke:#1f77b4;" x="204.051097" xlink:href="#m324dc5479b" y="490.0176"/>
     <use style="fill:#1f77b4;stroke:#1f77b4;" x="208.017007" xlink:href="#m324dc5479b" y="487.936173"/>
     <use style="fill:#1f77b4;stroke:#1f77b4;" x="212.046622" xlink:href="#m324dc5479b" y="489.437223"/>
     <use style="fill:#1f77b4;stroke:#1f77b4;" x="216.011705" xlink:href="#m324dc5479b" y="485.745169"/>
     <use style="fill:#1f77b4;stroke:#1f77b4;" x="220.033292" xlink:href="#m324dc5479b" y="478.044991"/>
     <use style="fill:#1f77b4;stroke:#1f77b4;" x="224.326125" xlink:href="#m324dc5479b" y="473.822668"/>
     <use style="fill:#1f77b4;stroke:#1f77b4;" x="228.235565" xlink:href="#m324dc5479b" y="468.630665"/>
     <use style="fill:#1f77b4;stroke:#1f77b4;" x="232.256713" xlink:href="#m324dc5479b" y="457.789625"/>
     <use style="fill:#1f77b4;stroke:#1f77b4;" x="236.281458" xlink:href="#m324dc5479b" y="446.132534"/>
     <use style="fill:#1f77b4;stroke:#1f77b4;" x="240.315025" xlink:href="#m324dc5479b" y="437.168083"/>
     <use style="fill:#1f77b4;stroke:#1f77b4;" x="244.211149" xlink:href="#m324dc5479b" y="423.156447"/>
     <use style="fill:#1f77b4;stroke:#1f77b4;" x="248.227517" xlink:href="#m324dc5479b" y="411.352334"/>
     <use style="fill:#1f77b4;stroke:#1f77b4;" x="252.243217" xlink:href="#m324dc5479b" y="400.952909"/>
     <use style="fill:#1f77b4;stroke:#1f77b4;" x="256.378602" xlink:href="#m324dc5479b" y="386.802512"/>
     <use style="fill:#1f77b4;stroke:#1f77b4;" x="260.398035" xlink:href="#m324dc5479b" y="375.939446"/>
     <use style="fill:#1f77b4;stroke:#1f77b4;" x="264.412308" xlink:href="#m324dc5479b" y="367.577948"/>
     <use style="fill:#1f77b4;stroke:#1f77b4;" x="268.433718" xlink:href="#m324dc5479b" y="357.405938"/>
     <use style="fill:#1f77b4;stroke:#1f77b4;" x="272.335941" xlink:href="#m324dc5479b" y="340.181857"/>
     <use style="fill:#1f77b4;stroke:#1f77b4;" x="276.35643" xlink:href="#m324dc5479b" y="324.62622"/>
     <use style="fill:#1f77b4;stroke:#1f77b4;" x="280.37784" xlink:href="#m324dc5479b" y="304.018994"/>
     <use style="fill:#1f77b4;stroke:#1f77b4;" x="283.917159" xlink:href="#m324dc5479b" y="286.323563"/>
     <use style="fill:#1f77b4;stroke:#1f77b4;" x="288.915806" xlink:href="#m324dc5479b" y="268.355564"/>
     <use style="fill:#1f77b4;stroke:#1f77b4;" x="292.209788" xlink:href="#m324dc5479b" y="258.479249"/>
     <use style="fill:#1f77b4;stroke:#1f77b4;" x="297.213598" xlink:href="#m324dc5479b" y="243.394412"/>
     <use style="fill:#1f77b4;stroke:#1f77b4;" x="300.512982" xlink:href="#m324dc5479b" y="232.495004"/>
     <use style="fill:#1f77b4;stroke:#1f77b4;" x="303.939311" xlink:href="#m324dc5479b" y="224.220507"/>
     <use style="fill:#1f77b4;stroke:#1f77b4;" x="308.822031" xlink:href="#m324dc5479b" y="208.172597"/>
     <use style="fill:#1f77b4;stroke:#1f77b4;" x="312.236056" xlink:href="#m324dc5479b" y="195.56675"/>
     <use style="fill:#1f77b4;stroke:#1f77b4;" x="317.247061" xlink:href="#m324dc5479b" y="184.998278"/>
     <use style="fill:#1f77b4;stroke:#1f77b4;" x="320.541258" xlink:href="#m324dc5479b" y="178.577792"/>
     <use style="fill:#1f77b4;stroke:#1f77b4;" x="323.842964" xlink:href="#m324dc5479b" y="172.782836"/>
     <use style="fill:#1f77b4;stroke:#1f77b4;" x="330.408526" xlink:href="#m324dc5479b" y="158.403922"/>
     <use style="fill:#1f77b4;stroke:#1f77b4;" x="333.854841" xlink:href="#m324dc5479b" y="149.01933"/>
     <use style="fill:#1f77b4;stroke:#1f77b4;" x="338.761335" xlink:href="#m324dc5479b" y="139.958516"/>
     <use style="fill:#1f77b4;stroke:#1f77b4;" x="342.210668" xlink:href="#m324dc5479b" y="133.735711"/>
     <use style="fill:#1f77b4;stroke:#1f77b4;" x="347.117454" xlink:href="#m324dc5479b" y="119.047886"/>
     <use style="fill:#1f77b4;stroke:#1f77b4;" x="350.554946" xlink:href="#m324dc5479b" y="114.715986"/>
     <use style="fill:#1f77b4;stroke:#1f77b4;" x="353.987486" xlink:href="#m324dc5479b" y="112.951178"/>
     <use style="fill:#1f77b4;stroke:#1f77b4;" x="358.906924" xlink:href="#m324dc5479b" y="105.243292"/>
     <use style="fill:#1f77b4;stroke:#1f77b4;" x="362.344416" xlink:href="#m324dc5479b" y="97.271097"/>
     <use style="fill:#1f77b4;stroke:#1f77b4;" x="367.286389" xlink:href="#m324dc5479b" y="94.027265"/>
     <use style="fill:#1f77b4;stroke:#1f77b4;" x="370.713436" xlink:href="#m324dc5479b" y="92.571367"/>
     <use style="fill:#1f77b4;stroke:#1f77b4;" x="373.910548" xlink:href="#m324dc5479b" y="95.358717"/>
     <use style="fill:#1f77b4;stroke:#1f77b4;" x="379.078086" xlink:href="#m324dc5479b" y="96.16761"/>
     <use style="fill:#1f77b4;stroke:#1f77b4;" x="382.250997" xlink:href="#m324dc5479b" y="97.92526"/>
     <use style="fill:#1f77b4;stroke:#1f77b4;" x="387.418514" xlink:href="#m324dc5479b" y="107.994299"/>
     <use style="fill:#1f77b4;stroke:#1f77b4;" x="390.604618" xlink:href="#m324dc5479b" y="112.457803"/>
     <use style="fill:#1f77b4;stroke:#1f77b4;" x="394.042111" xlink:href="#m324dc5479b" y="118.746135"/>
     <use style="fill:#1f77b4;stroke:#1f77b4;" x="398.961278" xlink:href="#m324dc5479b" y="128.218829"/>
     <use style="fill:#1f77b4;stroke:#1f77b4;" x="402.393547" xlink:href="#m324dc5479b" y="134.735126"/>
     <use style="fill:#1f77b4;stroke:#1f77b4;" x="407.320143" xlink:href="#m324dc5479b" y="146.443427"/>
     <use style="fill:#1f77b4;stroke:#1f77b4;" x="410.760382" xlink:href="#m324dc5479b" y="151.446009"/>
     <use style="fill:#1f77b4;stroke:#1f77b4;" x="415.913874" xlink:href="#m324dc5479b" y="162.970396"/>
     <use style="fill:#1f77b4;stroke:#1f77b4;" x="419.093652" xlink:href="#m324dc5479b" y="169.86168"/>
     <use style="fill:#1f77b4;stroke:#1f77b4;" x="422.536638" xlink:href="#m324dc5479b" y="175.105444"/>
     <use style="fill:#1f77b4;stroke:#1f77b4;" x="427.45002" xlink:href="#m324dc5479b" y="187.799394"/>
     <use style="fill:#1f77b4;stroke:#1f77b4;" x="430.90622" xlink:href="#m324dc5479b" y="195.050798"/>
     <use style="fill:#1f77b4;stroke:#1f77b4;" x="435.821787" xlink:href="#m324dc5479b" y="210.533199"/>
     <use style="fill:#1f77b4;stroke:#1f77b4;" x="439.264794" xlink:href="#m324dc5479b" y="220.983283"/>
     <use style="fill:#1f77b4;stroke:#1f77b4;" x="442.46332" xlink:href="#m324dc5479b" y="226.970964"/>
     <use style="fill:#1f77b4;stroke:#1f77b4;" x="447.608552" xlink:href="#m324dc5479b" y="242.62076"/>
     <use style="fill:#1f77b4;stroke:#1f77b4;" x="451.046876" xlink:href="#m324dc5479b" y="257.036017"/>
     <use style="fill:#1f77b4;stroke:#1f77b4;" x="455.955035" xlink:href="#m324dc5479b" y="282.026904"/>
     <use style="fill:#1f77b4;stroke:#1f77b4;" x="459.406282" xlink:href="#m324dc5479b" y="298.523587"/>
     <use style="fill:#1f77b4;stroke:#1f77b4;" x="464.30204" xlink:href="#m324dc5479b" y="317.837355"/>
     <use style="fill:#1f77b4;stroke:#1f77b4;" x="467.747231" xlink:href="#m324dc5479b" y="332.722309"/>
     <use style="fill:#1f77b4;stroke:#1f77b4;" x="470.949275" xlink:href="#m324dc5479b" y="348.226185"/>
     <use style="fill:#1f77b4;stroke:#1f77b4;" x="476.097835" xlink:href="#m324dc5479b" y="366.83403"/>
     <use style="fill:#1f77b4;stroke:#1f77b4;" x="479.294115" xlink:href="#m324dc5479b" y="375.644853"/>
     <use style="fill:#1f77b4;stroke:#1f77b4;" x="484.443196" xlink:href="#m324dc5479b" y="390.964814"/>
     <use style="fill:#1f77b4;stroke:#1f77b4;" x="487.646113" xlink:href="#m324dc5479b" y="396.921659"/>
     <use style="fill:#1f77b4;stroke:#1f77b4;" x="491.087996" xlink:href="#m324dc5479b" y="405.650987"/>
     <use style="fill:#1f77b4;stroke:#1f77b4;" x="495.994782" xlink:href="#m324dc5479b" y="414.359941"/>
     <use style="fill:#1f77b4;stroke:#1f77b4;" x="499.438059" xlink:href="#m324dc5479b" y="419.470449"/>
     <use style="fill:#1f77b4;stroke:#1f77b4;" x="504.340163" xlink:href="#m324dc5479b" y="429.406784"/>
     <use style="fill:#1f77b4;stroke:#1f77b4;" x="507.775949" xlink:href="#m324dc5479b" y="434.548128"/>
     <use style="fill:#1f77b4;stroke:#1f77b4;" x="511.213171" xlink:href="#m324dc5479b" y="436.754"/>
     <use style="fill:#1f77b4;stroke:#1f77b4;" x="516.121871" xlink:href="#m324dc5479b" y="439.254465"/>
     <use style="fill:#1f77b4;stroke:#1f77b4;" x="519.561861" xlink:href="#m324dc5479b" y="442.556665"/>
     <use style="fill:#1f77b4;stroke:#1f77b4;" x="524.48211" xlink:href="#m324dc5479b" y="436.166465"/>
     <use style="fill:#1f77b4;stroke:#1f77b4;" x="527.913276" xlink:href="#m324dc5479b" y="431.738753"/>
     <use style="fill:#1f77b4;stroke:#1f77b4;" x="532.831923" xlink:href="#m324dc5479b" y="421.684581"/>
     <use style="fill:#1f77b4;stroke:#1f77b4;" x="537.28708" xlink:href="#m324dc5479b" y="408.446596"/>
     <use style="fill:#1f77b4;stroke:#1f77b4;" x="540.714397" xlink:href="#m324dc5479b" y="399.811979"/>
     <use style="fill:#1f77b4;stroke:#1f77b4;" x="545.594214" xlink:href="#m324dc5479b" y="388.103128"/>
     <use style="fill:#1f77b4;stroke:#1f77b4;" x="549.041612" xlink:href="#m324dc5479b" y="382.403983"/>
     <use style="fill:#1f77b4;stroke:#1f77b4;" x="553.926653" xlink:href="#m324dc5479b" y="369.054769"/>
     <use style="fill:#1f77b4;stroke:#1f77b4;" x="557.361669" xlink:href="#m324dc5479b" y="356.088252"/>
     <use style="fill:#1f77b4;stroke:#1f77b4;" x="560.787613" xlink:href="#m324dc5479b" y="345.961395"/>
     <use style="fill:#1f77b4;stroke:#1f77b4;" x="565.697686" xlink:href="#m324dc5479b" y="326.963695"/>
     <use style="fill:#1f77b4;stroke:#1f77b4;" x="569.129415" xlink:href="#m324dc5479b" y="316.843997"/>
     <use style="fill:#1f77b4;stroke:#1f77b4;" x="574.034827" xlink:href="#m324dc5479b" y="302.017411"/>
     <use style="fill:#1f77b4;stroke:#1f77b4;" x="577.458586" xlink:href="#m324dc5479b" y="289.441298"/>
     <use style="fill:#1f77b4;stroke:#1f77b4;" x="580.896349" xlink:href="#m324dc5479b" y="276.055742"/>
     <use style="fill:#1f77b4;stroke:#1f77b4;" x="585.777831" xlink:href="#m324dc5479b" y="255.999709"/>
     <use style="fill:#1f77b4;stroke:#1f77b4;" x="589.228517" xlink:href="#m324dc5479b" y="241.841051"/>
     <use style="fill:#1f77b4;stroke:#1f77b4;" x="594.119571" xlink:href="#m324dc5479b" y="222.417155"/>
     <use style="fill:#1f77b4;stroke:#1f77b4;" x="597.550758" xlink:href="#m324dc5479b" y="208.789316"/>
     <use style="fill:#1f77b4;stroke:#1f77b4;" x="602.463038" xlink:href="#m324dc5479b" y="191.704547"/>
     <use style="fill:#1f77b4;stroke:#1f77b4;" x="605.920319" xlink:href="#m324dc5479b" y="183.732352"/>
     <use style="fill:#1f77b4;stroke:#1f77b4;" x="609.327847" xlink:href="#m324dc5479b" y="177.473755"/>
     <use style="fill:#1f77b4;stroke:#1f77b4;" x="614.244247" xlink:href="#m324dc5479b" y="161.219905"/>
     <use style="fill:#1f77b4;stroke:#1f77b4;" x="617.73453" xlink:href="#m324dc5479b" y="154.666164"/>
     <use style="fill:#1f77b4;stroke:#1f77b4;" x="622.636364" xlink:href="#m324dc5479b" y="141.84006"/>
    </g>
   </g>
   <g id="line2d_16">
    <path clip-path="url(#p5f9a09525c)" d="M 143.838345 329.767559 
L 152.949739 360.788936 
L 162.061132 389.831671 
L 171.172526 415.824484 
L 180.283919 437.802833 
L 189.395312 454.94268 
L 198.506706 466.589327 
L 207.618099 472.28033 
L 216.729492 471.761682 
L 225.840886 464.996707 
L 234.952279 452.167342 
L 244.063672 433.667767 
L 253.175066 410.090612 
L 262.286459 382.206215 
L 271.397853 350.935662 
L 280.509246 317.318549 
L 289.620639 282.476598 
L 298.732033 247.574399 
L 307.843426 213.778649 
L 316.954819 182.217324 
L 326.066213 153.940195 
L 335.177606 129.882094 
L 344.289 110.83019 
L 353.400393 97.396445 
L 362.511786 89.996192 
L 371.62318 88.8336 
L 380.734573 93.894531 
L 389.845966 104.94703 
L 398.95736 121.549447 
L 408.068753 143.065894 
L 417.180146 168.688497 
L 426.29154 197.465673 
L 435.402933 228.335435 
L 444.514327 260.162555 
L 453.62572 291.778304 
L 462.737113 322.021345 
L 471.848507 349.778389 
L 480.9599 374.023149 
L 490.071293 393.852266 
L 499.182687 408.516921 
L 508.29408 417.449043 
L 517.405473 420.281192 
L 526.516867 416.859419 
L 535.62826 407.248653 
L 544.739654 391.730428 
L 553.851047 370.79303 
L 562.96244 345.114412 
L 572.073834 315.538458 
L 581.185227 283.045457 
L 590.29662 248.717788 
" style="fill:none;stroke:#ff7f0e;stroke-linecap:square;stroke-width:1.5;"/>
   </g>
   <g id="patch_3">
    <path d="M 90 510.0768 
L 90 68.7744 
" style="fill:none;stroke:#000000;stroke-linecap:square;stroke-linejoin:miter;stroke-width:0.8;"/>
   </g>
   <g id="patch_4">
    <path d="M 648 510.0768 
L 648 68.7744 
" style="fill:none;stroke:#000000;stroke-linecap:square;stroke-linejoin:miter;stroke-width:0.8;"/>
   </g>
   <g id="patch_5">
    <path d="M 90 510.0768 
L 648 510.0768 
" style="fill:none;stroke:#000000;stroke-linecap:square;stroke-linejoin:miter;stroke-width:0.8;"/>
   </g>
   <g id="patch_6">
    <path d="M 90 68.7744 
L 648 68.7744 
" style="fill:none;stroke:#000000;stroke-linecap:square;stroke-linejoin:miter;stroke-width:0.8;"/>
   </g>
  </g>
 </g>
 <defs>
  <clipPath id="p5f9a09525c">
   <rect height="441.3024" width="558" x="90" y="68.7744"/>
  </clipPath>
 </defs>
</svg>
